solid OpenSCAD_Model
  facet normal 0 0 -1
    outer loop
      vertex 2.4406 0.30832 4.8
      vertex 2.46 0 4.8
      vertex 2.4406 -0.30832 4.8
    endloop
  endfacet
  facet normal 0 0 -1
    outer loop
      vertex 1.99018 1.44595 4.8
      vertex 2.15571 1.18511 4.8
      vertex 2.28725 0.905586 4.8
    endloop
  endfacet
  facet normal -0 -0 -1
    outer loop
      vertex 2.4406 0.30832 4.8
      vertex 2.4406 -0.30832 4.8
      vertex 2.38271 0.611777 4.8
    endloop
  endfacet
  facet normal 0 0 -1
    outer loop
      vertex 1.56806 1.89546 4.8
      vertex 1.99018 1.44595 4.8
      vertex 2.28725 0.905586 4.8
    endloop
  endfacet
  facet normal 0 0 -1
    outer loop
      vertex 2.38271 0.611777 4.8
      vertex 1.56806 1.89546 4.8
      vertex 2.28725 0.905586 4.8
    endloop
  endfacet
  facet normal 0 0 -1
    outer loop
      vertex 1.99018 1.44595 4.8
      vertex 1.56806 1.89546 4.8
      vertex 1.79326 1.68399 4.8
    endloop
  endfacet
  facet normal 0 0 -1
    outer loop
      vertex 0.460958 -2.41643 4.8
      vertex 0.154465 2.45515 4.8
      vertex 1.56806 1.89546 4.8
    endloop
  endfacet
  facet normal 0 0 -1
    outer loop
      vertex 1.56806 1.89546 4.8
      vertex 1.04742 2.22587 4.8
      vertex 1.31813 2.07705 4.8
    endloop
  endfacet
  facet normal 0 0 -1
    outer loop
      vertex 1.56806 1.89546 4.8
      vertex 0.760182 2.3396 4.8
      vertex 1.04742 2.22587 4.8
    endloop
  endfacet
  facet normal 0 0 -1
    outer loop
      vertex 0.154465 2.45515 4.8
      vertex 0.460958 2.41643 4.8
      vertex 0.760182 2.3396 4.8
    endloop
  endfacet
  facet normal 0 0 -1
    outer loop
      vertex 1.56806 1.89546 4.8
      vertex 0.154465 2.45515 4.8
      vertex 0.760182 2.3396 4.8
    endloop
  endfacet
  facet normal 0 0 -1
    outer loop
      vertex -1.31813 -2.07705 4.8
      vertex -2.28725 -0.905586 4.8
      vertex -0.460958 -2.41643 4.8
    endloop
  endfacet
  facet normal 0 -0 -1
    outer loop
      vertex -2.28725 0.905586 4.8
      vertex -2.28725 -0.905586 4.8
      vertex -2.4406 0.30832 4.8
    endloop
  endfacet
  facet normal 0 0 -1
    outer loop
      vertex -0.154465 2.45515 4.8
      vertex -0.760182 2.3396 4.8
      vertex -0.460958 2.41643 4.8
    endloop
  endfacet
  facet normal 0 0 -1
    outer loop
      vertex -1.31813 2.07705 4.8
      vertex -1.04742 2.22587 4.8
      vertex -0.760182 2.3396 4.8
    endloop
  endfacet
  facet normal 0 0 -1
    outer loop
      vertex -0.154465 2.45515 4.8
      vertex -1.31813 2.07705 4.8
      vertex -0.760182 2.3396 4.8
    endloop
  endfacet
  facet normal 0 0 -1
    outer loop
      vertex -0.460958 -2.41643 4.8
      vertex -2.28725 -0.905586 4.8
      vertex -2.28725 0.905586 4.8
    endloop
  endfacet
  facet normal 0 0 -1
    outer loop
      vertex -1.31813 2.07705 4.8
      vertex -1.79326 1.68399 4.8
      vertex -1.56806 1.89546 4.8
    endloop
  endfacet
  facet normal 0 0 -1
    outer loop
      vertex -1.31813 2.07705 4.8
      vertex -1.99018 1.44595 4.8
      vertex -1.79326 1.68399 4.8
    endloop
  endfacet
  facet normal 0 0 -1
    outer loop
      vertex -1.31813 2.07705 4.8
      vertex -2.28725 0.905586 4.8
      vertex -1.99018 1.44595 4.8
    endloop
  endfacet
  facet normal 0 0 -1
    outer loop
      vertex -1.99018 1.44595 4.8
      vertex -2.28725 0.905586 4.8
      vertex -2.15571 1.18511 4.8
    endloop
  endfacet
  facet normal 0 -0 -1
    outer loop
      vertex -1.31813 2.07705 4.8
      vertex -0.460958 -2.41643 4.8
      vertex -2.28725 0.905586 4.8
    endloop
  endfacet
  facet normal 0 0 -1
    outer loop
      vertex -2.28725 0.905586 4.8
      vertex -2.4406 0.30832 4.8
      vertex -2.38271 0.611777 4.8
    endloop
  endfacet
  facet normal 0 0 -1
    outer loop
      vertex -2.28725 -0.905586 4.8
      vertex -2.4406 -0.30832 4.8
      vertex -2.4406 0.30832 4.8
    endloop
  endfacet
  facet normal 0 -0 -1
    outer loop
      vertex -2.4406 0.30832 4.8
      vertex -2.4406 -0.30832 4.8
      vertex -2.46 0 4.8
    endloop
  endfacet
  facet normal 0 0 -1
    outer loop
      vertex -2.28725 -0.905586 4.8
      vertex -2.38271 -0.611777 4.8
      vertex -2.4406 -0.30832 4.8
    endloop
  endfacet
  facet normal 0 0 -1
    outer loop
      vertex -1.31813 2.07705 4.8
      vertex -0.154465 2.45515 4.8
      vertex -0.460958 -2.41643 4.8
    endloop
  endfacet
  facet normal 0 0 -1
    outer loop
      vertex -0.460958 -2.41643 4.8
      vertex -0.154465 2.45515 4.8
      vertex 0.154465 2.45515 4.8
    endloop
  endfacet
  facet normal 0 0 -1
    outer loop
      vertex -2.28725 -0.905586 4.8
      vertex -1.99018 -1.44595 4.8
      vertex -2.15571 -1.18511 4.8
    endloop
  endfacet
  facet normal 0 0 -1
    outer loop
      vertex -2.28725 -0.905586 4.8
      vertex -1.31813 -2.07705 4.8
      vertex -1.99018 -1.44595 4.8
    endloop
  endfacet
  facet normal 0 0 -1
    outer loop
      vertex -1.99018 -1.44595 4.8
      vertex -1.31813 -2.07705 4.8
      vertex -1.79326 -1.68399 4.8
    endloop
  endfacet
  facet normal 0 0 -1
    outer loop
      vertex -1.79326 -1.68399 4.8
      vertex -1.31813 -2.07705 4.8
      vertex -1.56806 -1.89546 4.8
    endloop
  endfacet
  facet normal 0 0 -1
    outer loop
      vertex 0.460958 -2.41643 4.8
      vertex -0.460958 -2.41643 4.8
      vertex 0.154465 2.45515 4.8
    endloop
  endfacet
  facet normal 0 0 -1
    outer loop
      vertex -1.31813 -2.07705 4.8
      vertex -0.460958 -2.41643 4.8
      vertex -1.04742 -2.22587 4.8
    endloop
  endfacet
  facet normal 0 0 -1
    outer loop
      vertex -1.04742 -2.22587 4.8
      vertex -0.460958 -2.41643 4.8
      vertex -0.760182 -2.3396 4.8
    endloop
  endfacet
  facet normal -0 0 -1
    outer loop
      vertex 2.38271 0.611777 4.8
      vertex 0.460958 -2.41643 4.8
      vertex 1.56806 1.89546 4.8
    endloop
  endfacet
  facet normal 0 0 -1
    outer loop
      vertex -0.460958 -2.41643 4.8
      vertex 0.154465 -2.45515 4.8
      vertex -0.154465 -2.45515 4.8
    endloop
  endfacet
  facet normal 0 0 -1
    outer loop
      vertex -0.460958 -2.41643 4.8
      vertex 0.460958 -2.41643 4.8
      vertex 0.154465 -2.45515 4.8
    endloop
  endfacet
  facet normal 0 0 -1
    outer loop
      vertex 2.28725 -0.905586 4.8
      vertex 1.31813 -2.07705 4.8
      vertex 0.460958 -2.41643 4.8
    endloop
  endfacet
  facet normal 0 0 -1
    outer loop
      vertex 0.460958 -2.41643 4.8
      vertex 1.04742 -2.22587 4.8
      vertex 0.760182 -2.3396 4.8
    endloop
  endfacet
  facet normal 0 0 -1
    outer loop
      vertex 0.460958 -2.41643 4.8
      vertex 1.31813 -2.07705 4.8
      vertex 1.04742 -2.22587 4.8
    endloop
  endfacet
  facet normal 0 0 -1
    outer loop
      vertex 2.38271 0.611777 4.8
      vertex 2.28725 -0.905586 4.8
      vertex 0.460958 -2.41643 4.8
    endloop
  endfacet
  facet normal 0 0 -1
    outer loop
      vertex 1.31813 -2.07705 4.8
      vertex 1.79326 -1.68399 4.8
      vertex 1.56806 -1.89546 4.8
    endloop
  endfacet
  facet normal 0 0 -1
    outer loop
      vertex 1.31813 -2.07705 4.8
      vertex 1.99018 -1.44595 4.8
      vertex 1.79326 -1.68399 4.8
    endloop
  endfacet
  facet normal 0 0 -1
    outer loop
      vertex 1.31813 -2.07705 4.8
      vertex 2.28725 -0.905586 4.8
      vertex 1.99018 -1.44595 4.8
    endloop
  endfacet
  facet normal 0 0 -1
    outer loop
      vertex 1.99018 -1.44595 4.8
      vertex 2.28725 -0.905586 4.8
      vertex 2.15571 -1.18511 4.8
    endloop
  endfacet
  facet normal 0 -0 -1
    outer loop
      vertex 2.38271 0.611777 4.8
      vertex 2.4406 -0.30832 4.8
      vertex 2.28725 -0.905586 4.8
    endloop
  endfacet
  facet normal 0 0 -1
    outer loop
      vertex 2.28725 -0.905586 4.8
      vertex 2.4406 -0.30832 4.8
      vertex 2.38271 -0.611777 4.8
    endloop
  endfacet
  facet normal 0.998026 0.0627975 0
    outer loop
      vertex 2.4406 0.30832 4.8
      vertex 2.46 0 6.5
      vertex 2.46 0 4.8
    endloop
  endfacet
  facet normal 0.998026 0.0627975 -0
    outer loop
      vertex 2.4406 0.30832 4.8
      vertex 2.4406 0.30832 6.5
      vertex 2.46 0 6.5
    endloop
  endfacet
  facet normal 0.982286 0.187389 0
    outer loop
      vertex 2.38271 0.611777 4.8
      vertex 2.4406 0.30832 6.5
      vertex 2.4406 0.30832 4.8
    endloop
  endfacet
  facet normal 0.982286 0.187389 -0
    outer loop
      vertex 2.38271 0.611777 4.8
      vertex 2.38271 0.611777 6.5
      vertex 2.4406 0.30832 6.5
    endloop
  endfacet
  facet normal 0.951061 0.309004 0
    outer loop
      vertex 2.28725 0.905586 4.8
      vertex 2.38271 0.611777 6.5
      vertex 2.38271 0.611777 4.8
    endloop
  endfacet
  facet normal 0.951061 0.309004 -0
    outer loop
      vertex 2.28725 0.905586 4.8
      vertex 2.28725 0.905586 6.5
      vertex 2.38271 0.611777 6.5
    endloop
  endfacet
  facet normal 0.90482 0.425795 0
    outer loop
      vertex 2.15571 1.18511 4.8
      vertex 2.28725 0.905586 6.5
      vertex 2.28725 0.905586 4.8
    endloop
  endfacet
  facet normal 0.90482 0.425795 -0
    outer loop
      vertex 2.15571 1.18511 4.8
      vertex 2.15571 1.18511 6.5
      vertex 2.28725 0.905586 6.5
    endloop
  endfacet
  facet normal 0.844334 0.535817 0
    outer loop
      vertex 1.99018 1.44595 4.8
      vertex 2.15571 1.18511 6.5
      vertex 2.15571 1.18511 4.8
    endloop
  endfacet
  facet normal 0.844334 0.535817 -0
    outer loop
      vertex 1.99018 1.44595 4.8
      vertex 1.99018 1.44595 6.5
      vertex 2.15571 1.18511 6.5
    endloop
  endfacet
  facet normal 0.770519 0.637417 0
    outer loop
      vertex 1.79326 1.68399 4.8
      vertex 1.99018 1.44595 6.5
      vertex 1.99018 1.44595 4.8
    endloop
  endfacet
  facet normal 0.770519 0.637417 -0
    outer loop
      vertex 1.79326 1.68399 4.8
      vertex 1.79326 1.68399 6.5
      vertex 1.99018 1.44595 6.5
    endloop
  endfacet
  facet normal 0.684535 0.72898 0
    outer loop
      vertex 1.56806 1.89546 4.8
      vertex 1.79326 1.68399 6.5
      vertex 1.79326 1.68399 4.8
    endloop
  endfacet
  facet normal 0.684535 0.72898 -0
    outer loop
      vertex 1.56806 1.89546 4.8
      vertex 1.56806 1.89546 6.5
      vertex 1.79326 1.68399 6.5
    endloop
  endfacet
  facet normal 0.587796 0.809009 0
    outer loop
      vertex 1.31813 2.07705 4.8
      vertex 1.56806 1.89546 6.5
      vertex 1.56806 1.89546 4.8
    endloop
  endfacet
  facet normal 0.587796 0.809009 -0
    outer loop
      vertex 1.31813 2.07705 4.8
      vertex 1.31813 2.07705 6.5
      vertex 1.56806 1.89546 6.5
    endloop
  endfacet
  facet normal 0.481744 0.876312 0
    outer loop
      vertex 1.04742 2.22587 4.8
      vertex 1.31813 2.07705 6.5
      vertex 1.31813 2.07705 4.8
    endloop
  endfacet
  facet normal 0.481744 0.876312 -0
    outer loop
      vertex 1.04742 2.22587 4.8
      vertex 1.04742 2.22587 6.5
      vertex 1.31813 2.07705 6.5
    endloop
  endfacet
  facet normal 0.368137 0.929772 0
    outer loop
      vertex 0.760182 2.3396 4.8
      vertex 1.04742 2.22587 6.5
      vertex 1.04742 2.22587 4.8
    endloop
  endfacet
  facet normal 0.368137 0.929772 -0
    outer loop
      vertex 0.760182 2.3396 4.8
      vertex 0.760182 2.3396 6.5
      vertex 1.04742 2.22587 6.5
    endloop
  endfacet
  facet normal 0.248697 0.968581 0
    outer loop
      vertex 0.460958 2.41643 4.8
      vertex 0.760182 2.3396 6.5
      vertex 0.760182 2.3396 4.8
    endloop
  endfacet
  facet normal 0.248697 0.968581 -0
    outer loop
      vertex 0.460958 2.41643 4.8
      vertex 0.460958 2.41643 6.5
      vertex 0.760182 2.3396 6.5
    endloop
  endfacet
  facet normal 0.125336 0.992114 0
    outer loop
      vertex 0.154465 2.45515 4.8
      vertex 0.460958 2.41643 6.5
      vertex 0.460958 2.41643 4.8
    endloop
  endfacet
  facet normal 0.125336 0.992114 -0
    outer loop
      vertex 0.154465 2.45515 4.8
      vertex 0.154465 2.45515 6.5
      vertex 0.460958 2.41643 6.5
    endloop
  endfacet
  facet normal 0 1 0
    outer loop
      vertex -0.154465 2.45515 4.8
      vertex 0.154465 2.45515 6.5
      vertex 0.154465 2.45515 4.8
    endloop
  endfacet
  facet normal 0 1 0
    outer loop
      vertex -0.154465 2.45515 4.8
      vertex -0.154465 2.45515 6.5
      vertex 0.154465 2.45515 6.5
    endloop
  endfacet
  facet normal -0.125336 0.992114 0
    outer loop
      vertex -0.460958 2.41643 4.8
      vertex -0.154465 2.45515 6.5
      vertex -0.154465 2.45515 4.8
    endloop
  endfacet
  facet normal -0.125336 0.992114 0
    outer loop
      vertex -0.460958 2.41643 4.8
      vertex -0.460958 2.41643 6.5
      vertex -0.154465 2.45515 6.5
    endloop
  endfacet
  facet normal -0.248697 0.968581 0
    outer loop
      vertex -0.760182 2.3396 4.8
      vertex -0.460958 2.41643 6.5
      vertex -0.460958 2.41643 4.8
    endloop
  endfacet
  facet normal -0.248697 0.968581 0
    outer loop
      vertex -0.760182 2.3396 4.8
      vertex -0.760182 2.3396 6.5
      vertex -0.460958 2.41643 6.5
    endloop
  endfacet
  facet normal -0.368137 0.929772 0
    outer loop
      vertex -1.04742 2.22587 4.8
      vertex -0.760182 2.3396 6.5
      vertex -0.760182 2.3396 4.8
    endloop
  endfacet
  facet normal -0.368137 0.929772 0
    outer loop
      vertex -1.04742 2.22587 4.8
      vertex -1.04742 2.22587 6.5
      vertex -0.760182 2.3396 6.5
    endloop
  endfacet
  facet normal -0.481744 0.876312 0
    outer loop
      vertex -1.31813 2.07705 4.8
      vertex -1.04742 2.22587 6.5
      vertex -1.04742 2.22587 4.8
    endloop
  endfacet
  facet normal -0.481744 0.876312 0
    outer loop
      vertex -1.31813 2.07705 4.8
      vertex -1.31813 2.07705 6.5
      vertex -1.04742 2.22587 6.5
    endloop
  endfacet
  facet normal -0.587796 0.809009 0
    outer loop
      vertex -1.56806 1.89546 4.8
      vertex -1.31813 2.07705 6.5
      vertex -1.31813 2.07705 4.8
    endloop
  endfacet
  facet normal -0.587796 0.809009 0
    outer loop
      vertex -1.56806 1.89546 4.8
      vertex -1.56806 1.89546 6.5
      vertex -1.31813 2.07705 6.5
    endloop
  endfacet
  facet normal -0.684535 0.72898 0
    outer loop
      vertex -1.79326 1.68399 4.8
      vertex -1.56806 1.89546 6.5
      vertex -1.56806 1.89546 4.8
    endloop
  endfacet
  facet normal -0.684535 0.72898 0
    outer loop
      vertex -1.79326 1.68399 4.8
      vertex -1.79326 1.68399 6.5
      vertex -1.56806 1.89546 6.5
    endloop
  endfacet
  facet normal -0.770519 0.637417 0
    outer loop
      vertex -1.99018 1.44595 4.8
      vertex -1.79326 1.68399 6.5
      vertex -1.79326 1.68399 4.8
    endloop
  endfacet
  facet normal -0.770519 0.637417 0
    outer loop
      vertex -1.99018 1.44595 4.8
      vertex -1.99018 1.44595 6.5
      vertex -1.79326 1.68399 6.5
    endloop
  endfacet
  facet normal -0.844334 0.535817 0
    outer loop
      vertex -2.15571 1.18511 4.8
      vertex -1.99018 1.44595 6.5
      vertex -1.99018 1.44595 4.8
    endloop
  endfacet
  facet normal -0.844334 0.535817 0
    outer loop
      vertex -2.15571 1.18511 4.8
      vertex -2.15571 1.18511 6.5
      vertex -1.99018 1.44595 6.5
    endloop
  endfacet
  facet normal -0.90482 0.425795 0
    outer loop
      vertex -2.28725 0.905586 4.8
      vertex -2.15571 1.18511 6.5
      vertex -2.15571 1.18511 4.8
    endloop
  endfacet
  facet normal -0.90482 0.425795 0
    outer loop
      vertex -2.28725 0.905586 4.8
      vertex -2.28725 0.905586 6.5
      vertex -2.15571 1.18511 6.5
    endloop
  endfacet
  facet normal -0.951061 0.309004 0
    outer loop
      vertex -2.38271 0.611777 4.8
      vertex -2.28725 0.905586 6.5
      vertex -2.28725 0.905586 4.8
    endloop
  endfacet
  facet normal -0.951061 0.309004 0
    outer loop
      vertex -2.38271 0.611777 4.8
      vertex -2.38271 0.611777 6.5
      vertex -2.28725 0.905586 6.5
    endloop
  endfacet
  facet normal -0.982286 0.187389 0
    outer loop
      vertex -2.4406 0.30832 4.8
      vertex -2.38271 0.611777 6.5
      vertex -2.38271 0.611777 4.8
    endloop
  endfacet
  facet normal -0.982286 0.187389 0
    outer loop
      vertex -2.4406 0.30832 4.8
      vertex -2.4406 0.30832 6.5
      vertex -2.38271 0.611777 6.5
    endloop
  endfacet
  facet normal -0.998026 0.0627975 0
    outer loop
      vertex -2.46 0 4.8
      vertex -2.4406 0.30832 6.5
      vertex -2.4406 0.30832 4.8
    endloop
  endfacet
  facet normal -0.998026 0.0627975 0
    outer loop
      vertex -2.46 0 4.8
      vertex -2.46 0 6.5
      vertex -2.4406 0.30832 6.5
    endloop
  endfacet
  facet normal -0.998026 -0.0627975 0
    outer loop
      vertex -2.4406 -0.30832 4.8
      vertex -2.46 0 6.5
      vertex -2.46 0 4.8
    endloop
  endfacet
  facet normal -0.998026 -0.0627975 0
    outer loop
      vertex -2.4406 -0.30832 4.8
      vertex -2.4406 -0.30832 6.5
      vertex -2.46 0 6.5
    endloop
  endfacet
  facet normal -0.982286 -0.187389 0
    outer loop
      vertex -2.38271 -0.611777 4.8
      vertex -2.4406 -0.30832 6.5
      vertex -2.4406 -0.30832 4.8
    endloop
  endfacet
  facet normal -0.982286 -0.187389 0
    outer loop
      vertex -2.38271 -0.611777 4.8
      vertex -2.38271 -0.611777 6.5
      vertex -2.4406 -0.30832 6.5
    endloop
  endfacet
  facet normal -0.951061 -0.309004 0
    outer loop
      vertex -2.28725 -0.905586 4.8
      vertex -2.38271 -0.611777 6.5
      vertex -2.38271 -0.611777 4.8
    endloop
  endfacet
  facet normal -0.951061 -0.309004 0
    outer loop
      vertex -2.28725 -0.905586 4.8
      vertex -2.28725 -0.905586 6.5
      vertex -2.38271 -0.611777 6.5
    endloop
  endfacet
  facet normal -0.90482 -0.425795 0
    outer loop
      vertex -2.15571 -1.18511 4.8
      vertex -2.28725 -0.905586 6.5
      vertex -2.28725 -0.905586 4.8
    endloop
  endfacet
  facet normal -0.90482 -0.425795 0
    outer loop
      vertex -2.15571 -1.18511 4.8
      vertex -2.15571 -1.18511 6.5
      vertex -2.28725 -0.905586 6.5
    endloop
  endfacet
  facet normal -0.844334 -0.535817 0
    outer loop
      vertex -1.99018 -1.44595 4.8
      vertex -2.15571 -1.18511 6.5
      vertex -2.15571 -1.18511 4.8
    endloop
  endfacet
  facet normal -0.844334 -0.535817 0
    outer loop
      vertex -1.99018 -1.44595 4.8
      vertex -1.99018 -1.44595 6.5
      vertex -2.15571 -1.18511 6.5
    endloop
  endfacet
  facet normal -0.770519 -0.637417 0
    outer loop
      vertex -1.79326 -1.68399 4.8
      vertex -1.99018 -1.44595 6.5
      vertex -1.99018 -1.44595 4.8
    endloop
  endfacet
  facet normal -0.770519 -0.637417 0
    outer loop
      vertex -1.79326 -1.68399 4.8
      vertex -1.79326 -1.68399 6.5
      vertex -1.99018 -1.44595 6.5
    endloop
  endfacet
  facet normal -0.684535 -0.72898 0
    outer loop
      vertex -1.56806 -1.89546 4.8
      vertex -1.79326 -1.68399 6.5
      vertex -1.79326 -1.68399 4.8
    endloop
  endfacet
  facet normal -0.684535 -0.72898 0
    outer loop
      vertex -1.56806 -1.89546 4.8
      vertex -1.56806 -1.89546 6.5
      vertex -1.79326 -1.68399 6.5
    endloop
  endfacet
  facet normal -0.587796 -0.809009 0
    outer loop
      vertex -1.31813 -2.07705 4.8
      vertex -1.56806 -1.89546 6.5
      vertex -1.56806 -1.89546 4.8
    endloop
  endfacet
  facet normal -0.587796 -0.809009 0
    outer loop
      vertex -1.31813 -2.07705 4.8
      vertex -1.31813 -2.07705 6.5
      vertex -1.56806 -1.89546 6.5
    endloop
  endfacet
  facet normal -0.481744 -0.876312 0
    outer loop
      vertex -1.04742 -2.22587 4.8
      vertex -1.31813 -2.07705 6.5
      vertex -1.31813 -2.07705 4.8
    endloop
  endfacet
  facet normal -0.481744 -0.876312 0
    outer loop
      vertex -1.04742 -2.22587 4.8
      vertex -1.04742 -2.22587 6.5
      vertex -1.31813 -2.07705 6.5
    endloop
  endfacet
  facet normal -0.368137 -0.929772 0
    outer loop
      vertex -0.760182 -2.3396 4.8
      vertex -1.04742 -2.22587 6.5
      vertex -1.04742 -2.22587 4.8
    endloop
  endfacet
  facet normal -0.368137 -0.929772 0
    outer loop
      vertex -0.760182 -2.3396 4.8
      vertex -0.760182 -2.3396 6.5
      vertex -1.04742 -2.22587 6.5
    endloop
  endfacet
  facet normal -0.248697 -0.968581 0
    outer loop
      vertex -0.460958 -2.41643 4.8
      vertex -0.760182 -2.3396 6.5
      vertex -0.760182 -2.3396 4.8
    endloop
  endfacet
  facet normal -0.248697 -0.968581 0
    outer loop
      vertex -0.460958 -2.41643 4.8
      vertex -0.460958 -2.41643 6.5
      vertex -0.760182 -2.3396 6.5
    endloop
  endfacet
  facet normal -0.125336 -0.992114 0
    outer loop
      vertex -0.154465 -2.45515 4.8
      vertex -0.460958 -2.41643 6.5
      vertex -0.460958 -2.41643 4.8
    endloop
  endfacet
  facet normal -0.125336 -0.992114 0
    outer loop
      vertex -0.154465 -2.45515 4.8
      vertex -0.154465 -2.45515 6.5
      vertex -0.460958 -2.41643 6.5
    endloop
  endfacet
  facet normal 0 -1 0
    outer loop
      vertex 0.154465 -2.45515 4.8
      vertex -0.154465 -2.45515 6.5
      vertex -0.154465 -2.45515 4.8
    endloop
  endfacet
  facet normal 0 -1 0
    outer loop
      vertex 0.154465 -2.45515 4.8
      vertex 0.154465 -2.45515 6.5
      vertex -0.154465 -2.45515 6.5
    endloop
  endfacet
  facet normal 0.125336 -0.992114 0
    outer loop
      vertex 0.460958 -2.41643 4.8
      vertex 0.154465 -2.45515 6.5
      vertex 0.154465 -2.45515 4.8
    endloop
  endfacet
  facet normal 0.125336 -0.992114 0
    outer loop
      vertex 0.460958 -2.41643 4.8
      vertex 0.460958 -2.41643 6.5
      vertex 0.154465 -2.45515 6.5
    endloop
  endfacet
  facet normal 0.248697 -0.968581 0
    outer loop
      vertex 0.760182 -2.3396 4.8
      vertex 0.460958 -2.41643 6.5
      vertex 0.460958 -2.41643 4.8
    endloop
  endfacet
  facet normal 0.248697 -0.968581 0
    outer loop
      vertex 0.760182 -2.3396 4.8
      vertex 0.760182 -2.3396 6.5
      vertex 0.460958 -2.41643 6.5
    endloop
  endfacet
  facet normal 0.368137 -0.929772 0
    outer loop
      vertex 1.04742 -2.22587 4.8
      vertex 0.760182 -2.3396 6.5
      vertex 0.760182 -2.3396 4.8
    endloop
  endfacet
  facet normal 0.368137 -0.929772 0
    outer loop
      vertex 1.04742 -2.22587 4.8
      vertex 1.04742 -2.22587 6.5
      vertex 0.760182 -2.3396 6.5
    endloop
  endfacet
  facet normal 0.481744 -0.876312 0
    outer loop
      vertex 1.31813 -2.07705 4.8
      vertex 1.04742 -2.22587 6.5
      vertex 1.04742 -2.22587 4.8
    endloop
  endfacet
  facet normal 0.481744 -0.876312 0
    outer loop
      vertex 1.31813 -2.07705 4.8
      vertex 1.31813 -2.07705 6.5
      vertex 1.04742 -2.22587 6.5
    endloop
  endfacet
  facet normal 0.587796 -0.809009 0
    outer loop
      vertex 1.56806 -1.89546 4.8
      vertex 1.31813 -2.07705 6.5
      vertex 1.31813 -2.07705 4.8
    endloop
  endfacet
  facet normal 0.587796 -0.809009 0
    outer loop
      vertex 1.56806 -1.89546 4.8
      vertex 1.56806 -1.89546 6.5
      vertex 1.31813 -2.07705 6.5
    endloop
  endfacet
  facet normal 0.684535 -0.72898 0
    outer loop
      vertex 1.79326 -1.68399 4.8
      vertex 1.56806 -1.89546 6.5
      vertex 1.56806 -1.89546 4.8
    endloop
  endfacet
  facet normal 0.684535 -0.72898 0
    outer loop
      vertex 1.79326 -1.68399 4.8
      vertex 1.79326 -1.68399 6.5
      vertex 1.56806 -1.89546 6.5
    endloop
  endfacet
  facet normal 0.770519 -0.637417 0
    outer loop
      vertex 1.99018 -1.44595 4.8
      vertex 1.79326 -1.68399 6.5
      vertex 1.79326 -1.68399 4.8
    endloop
  endfacet
  facet normal 0.770519 -0.637417 0
    outer loop
      vertex 1.99018 -1.44595 4.8
      vertex 1.99018 -1.44595 6.5
      vertex 1.79326 -1.68399 6.5
    endloop
  endfacet
  facet normal 0.844334 -0.535817 0
    outer loop
      vertex 2.15571 -1.18511 4.8
      vertex 1.99018 -1.44595 6.5
      vertex 1.99018 -1.44595 4.8
    endloop
  endfacet
  facet normal 0.844334 -0.535817 0
    outer loop
      vertex 2.15571 -1.18511 4.8
      vertex 2.15571 -1.18511 6.5
      vertex 1.99018 -1.44595 6.5
    endloop
  endfacet
  facet normal 0.90482 -0.425795 0
    outer loop
      vertex 2.28725 -0.905586 4.8
      vertex 2.15571 -1.18511 6.5
      vertex 2.15571 -1.18511 4.8
    endloop
  endfacet
  facet normal 0.90482 -0.425795 0
    outer loop
      vertex 2.28725 -0.905586 4.8
      vertex 2.28725 -0.905586 6.5
      vertex 2.15571 -1.18511 6.5
    endloop
  endfacet
  facet normal 0.951061 -0.309004 0
    outer loop
      vertex 2.38271 -0.611777 4.8
      vertex 2.28725 -0.905586 6.5
      vertex 2.28725 -0.905586 4.8
    endloop
  endfacet
  facet normal 0.951061 -0.309004 0
    outer loop
      vertex 2.38271 -0.611777 4.8
      vertex 2.38271 -0.611777 6.5
      vertex 2.28725 -0.905586 6.5
    endloop
  endfacet
  facet normal 0.982286 -0.187389 0
    outer loop
      vertex 2.4406 -0.30832 4.8
      vertex 2.38271 -0.611777 6.5
      vertex 2.38271 -0.611777 4.8
    endloop
  endfacet
  facet normal 0.982286 -0.187389 0
    outer loop
      vertex 2.4406 -0.30832 4.8
      vertex 2.4406 -0.30832 6.5
      vertex 2.38271 -0.611777 6.5
    endloop
  endfacet
  facet normal 0.998026 -0.0627975 0
    outer loop
      vertex 2.46 0 4.8
      vertex 2.4406 -0.30832 6.5
      vertex 2.4406 -0.30832 4.8
    endloop
  endfacet
  facet normal 0.998026 -0.0627975 0
    outer loop
      vertex 2.46 0 4.8
      vertex 2.46 0 6.5
      vertex 2.4406 -0.30832 6.5
    endloop
  endfacet
  facet normal 0 0 1
    outer loop
      vertex 2.4406 -0.30832 6.5
      vertex 2.46 0 6.5
      vertex 2.4406 0.30832 6.5
    endloop
  endfacet
  facet normal 0 0 1
    outer loop
      vertex 2.28725 0.905586 6.5
      vertex 2.15571 1.18511 6.5
      vertex 1.99018 1.44595 6.5
    endloop
  endfacet
  facet normal 0 0 1
    outer loop
      vertex 2.38271 0.611777 6.5
      vertex 2.4406 -0.30832 6.5
      vertex 2.4406 0.30832 6.5
    endloop
  endfacet
  facet normal 0 0 1
    outer loop
      vertex 2.28725 0.905586 6.5
      vertex 1.99018 1.44595 6.5
      vertex 1.56806 1.89546 6.5
    endloop
  endfacet
  facet normal 0 0 1
    outer loop
      vertex 2.28725 0.905586 6.5
      vertex 1.56806 1.89546 6.5
      vertex 2.38271 0.611777 6.5
    endloop
  endfacet
  facet normal 0 0 1
    outer loop
      vertex 1.79326 1.68399 6.5
      vertex 1.56806 1.89546 6.5
      vertex 1.99018 1.44595 6.5
    endloop
  endfacet
  facet normal 0 0 1
    outer loop
      vertex 1.56806 1.89546 6.5
      vertex 0.154465 2.45515 6.5
      vertex 0.460958 -2.41643 6.5
    endloop
  endfacet
  facet normal 0 0 1
    outer loop
      vertex 1.31813 2.07705 6.5
      vertex 1.04742 2.22587 6.5
      vertex 1.56806 1.89546 6.5
    endloop
  endfacet
  facet normal 0 0 1
    outer loop
      vertex 1.04742 2.22587 6.5
      vertex 0.760182 2.3396 6.5
      vertex 1.56806 1.89546 6.5
    endloop
  endfacet
  facet normal 0 0 1
    outer loop
      vertex 0.760182 2.3396 6.5
      vertex 0.460958 2.41643 6.5
      vertex 0.154465 2.45515 6.5
    endloop
  endfacet
  facet normal 0 0 1
    outer loop
      vertex 0.760182 2.3396 6.5
      vertex 0.154465 2.45515 6.5
      vertex 1.56806 1.89546 6.5
    endloop
  endfacet
  facet normal 0 0 1
    outer loop
      vertex -0.460958 -2.41643 6.5
      vertex -2.28725 -0.905586 6.5
      vertex -1.31813 -2.07705 6.5
    endloop
  endfacet
  facet normal -0 0 1
    outer loop
      vertex -2.4406 0.30832 6.5
      vertex -2.28725 -0.905586 6.5
      vertex -2.28725 0.905586 6.5
    endloop
  endfacet
  facet normal -0 0 1
    outer loop
      vertex -0.460958 2.41643 6.5
      vertex -0.760182 2.3396 6.5
      vertex -0.154465 2.45515 6.5
    endloop
  endfacet
  facet normal 0 0 1
    outer loop
      vertex -0.760182 2.3396 6.5
      vertex -1.04742 2.22587 6.5
      vertex -1.31813 2.07705 6.5
    endloop
  endfacet
  facet normal -0 0 1
    outer loop
      vertex -0.760182 2.3396 6.5
      vertex -1.31813 2.07705 6.5
      vertex -0.154465 2.45515 6.5
    endloop
  endfacet
  facet normal 0 0 1
    outer loop
      vertex -2.28725 0.905586 6.5
      vertex -2.28725 -0.905586 6.5
      vertex -0.460958 -2.41643 6.5
    endloop
  endfacet
  facet normal -0 0 1
    outer loop
      vertex -1.56806 1.89546 6.5
      vertex -1.79326 1.68399 6.5
      vertex -1.31813 2.07705 6.5
    endloop
  endfacet
  facet normal -0 0 1
    outer loop
      vertex -1.79326 1.68399 6.5
      vertex -1.99018 1.44595 6.5
      vertex -1.31813 2.07705 6.5
    endloop
  endfacet
  facet normal -0 0 1
    outer loop
      vertex -1.99018 1.44595 6.5
      vertex -2.28725 0.905586 6.5
      vertex -1.31813 2.07705 6.5
    endloop
  endfacet
  facet normal -0 0 1
    outer loop
      vertex -2.15571 1.18511 6.5
      vertex -2.28725 0.905586 6.5
      vertex -1.99018 1.44595 6.5
    endloop
  endfacet
  facet normal -0 0 1
    outer loop
      vertex -2.28725 0.905586 6.5
      vertex -0.460958 -2.41643 6.5
      vertex -1.31813 2.07705 6.5
    endloop
  endfacet
  facet normal -0 0 1
    outer loop
      vertex -2.38271 0.611777 6.5
      vertex -2.4406 0.30832 6.5
      vertex -2.28725 0.905586 6.5
    endloop
  endfacet
  facet normal 0 0 1
    outer loop
      vertex -2.4406 0.30832 6.5
      vertex -2.4406 -0.30832 6.5
      vertex -2.28725 -0.905586 6.5
    endloop
  endfacet
  facet normal -0 0 1
    outer loop
      vertex -2.46 0 6.5
      vertex -2.4406 -0.30832 6.5
      vertex -2.4406 0.30832 6.5
    endloop
  endfacet
  facet normal 0 0 1
    outer loop
      vertex -2.4406 -0.30832 6.5
      vertex -2.38271 -0.611777 6.5
      vertex -2.28725 -0.905586 6.5
    endloop
  endfacet
  facet normal 0 -0 1
    outer loop
      vertex -0.460958 -2.41643 6.5
      vertex -0.154465 2.45515 6.5
      vertex -1.31813 2.07705 6.5
    endloop
  endfacet
  facet normal 0 0 1
    outer loop
      vertex 0.154465 2.45515 6.5
      vertex -0.154465 2.45515 6.5
      vertex -0.460958 -2.41643 6.5
    endloop
  endfacet
  facet normal -0 -0 1
    outer loop
      vertex -2.15571 -1.18511 6.5
      vertex -1.99018 -1.44595 6.5
      vertex -2.28725 -0.905586 6.5
    endloop
  endfacet
  facet normal -0 -0 1
    outer loop
      vertex -1.99018 -1.44595 6.5
      vertex -1.31813 -2.07705 6.5
      vertex -2.28725 -0.905586 6.5
    endloop
  endfacet
  facet normal -0 -0 1
    outer loop
      vertex -1.79326 -1.68399 6.5
      vertex -1.31813 -2.07705 6.5
      vertex -1.99018 -1.44595 6.5
    endloop
  endfacet
  facet normal -0 -0 1
    outer loop
      vertex -1.56806 -1.89546 6.5
      vertex -1.31813 -2.07705 6.5
      vertex -1.79326 -1.68399 6.5
    endloop
  endfacet
  facet normal 0 0 1
    outer loop
      vertex 0.154465 2.45515 6.5
      vertex -0.460958 -2.41643 6.5
      vertex 0.460958 -2.41643 6.5
    endloop
  endfacet
  facet normal -0 -0 1
    outer loop
      vertex -1.04742 -2.22587 6.5
      vertex -0.460958 -2.41643 6.5
      vertex -1.31813 -2.07705 6.5
    endloop
  endfacet
  facet normal -0 -0 1
    outer loop
      vertex -0.760182 -2.3396 6.5
      vertex -0.460958 -2.41643 6.5
      vertex -1.04742 -2.22587 6.5
    endloop
  endfacet
  facet normal 0 0 1
    outer loop
      vertex 1.56806 1.89546 6.5
      vertex 0.460958 -2.41643 6.5
      vertex 2.38271 0.611777 6.5
    endloop
  endfacet
  facet normal 0 -0 1
    outer loop
      vertex -0.154465 -2.45515 6.5
      vertex 0.154465 -2.45515 6.5
      vertex -0.460958 -2.41643 6.5
    endloop
  endfacet
  facet normal 0 -0 1
    outer loop
      vertex 0.154465 -2.45515 6.5
      vertex 0.460958 -2.41643 6.5
      vertex -0.460958 -2.41643 6.5
    endloop
  endfacet
  facet normal 0 0 1
    outer loop
      vertex 0.460958 -2.41643 6.5
      vertex 1.31813 -2.07705 6.5
      vertex 2.28725 -0.905586 6.5
    endloop
  endfacet
  facet normal 0 -0 1
    outer loop
      vertex 0.760182 -2.3396 6.5
      vertex 1.04742 -2.22587 6.5
      vertex 0.460958 -2.41643 6.5
    endloop
  endfacet
  facet normal 0 -0 1
    outer loop
      vertex 1.04742 -2.22587 6.5
      vertex 1.31813 -2.07705 6.5
      vertex 0.460958 -2.41643 6.5
    endloop
  endfacet
  facet normal 0 0 1
    outer loop
      vertex 0.460958 -2.41643 6.5
      vertex 2.28725 -0.905586 6.5
      vertex 2.38271 0.611777 6.5
    endloop
  endfacet
  facet normal 0 -0 1
    outer loop
      vertex 1.56806 -1.89546 6.5
      vertex 1.79326 -1.68399 6.5
      vertex 1.31813 -2.07705 6.5
    endloop
  endfacet
  facet normal 0 -0 1
    outer loop
      vertex 1.79326 -1.68399 6.5
      vertex 1.99018 -1.44595 6.5
      vertex 1.31813 -2.07705 6.5
    endloop
  endfacet
  facet normal 0 -0 1
    outer loop
      vertex 1.99018 -1.44595 6.5
      vertex 2.28725 -0.905586 6.5
      vertex 1.31813 -2.07705 6.5
    endloop
  endfacet
  facet normal 0 -0 1
    outer loop
      vertex 2.15571 -1.18511 6.5
      vertex 2.28725 -0.905586 6.5
      vertex 1.99018 -1.44595 6.5
    endloop
  endfacet
  facet normal 0 0 1
    outer loop
      vertex 2.28725 -0.905586 6.5
      vertex 2.4406 -0.30832 6.5
      vertex 2.38271 0.611777 6.5
    endloop
  endfacet
  facet normal 0 -0 1
    outer loop
      vertex 2.38271 -0.611777 6.5
      vertex 2.4406 -0.30832 6.5
      vertex 2.28725 -0.905586 6.5
    endloop
  endfacet
  facet normal 1 -0 0
    outer loop
      vertex 3.9 -3.9 4.8
      vertex 3.9 3.9 -4.8
      vertex 3.9 3.9 4.8
    endloop
  endfacet
  facet normal 1 0 0
    outer loop
      vertex 3.9 3.9 -4.8
      vertex 3.9 -3.9 4.8
      vertex 3.9 -3.9 -4.8
    endloop
  endfacet
  facet normal -0 0 1
    outer loop
      vertex -3.9 3.9 4.8
      vertex 3.9 -3.9 4.8
      vertex 3.9 3.9 4.8
    endloop
  endfacet
  facet normal 0 0 1
    outer loop
      vertex 3.9 -3.9 4.8
      vertex -3.9 3.9 4.8
      vertex -3.9 -3.9 4.8
    endloop
  endfacet
  facet normal 0 0 -1
    outer loop
      vertex 3.9 -3.9 -4.8
      vertex 2.54 -2.54 -4.8
      vertex 3.9 3.9 -4.8
    endloop
  endfacet
  facet normal 0 0 -1
    outer loop
      vertex 3.9 -3.9 -4.8
      vertex -2.54 -2.54 -4.8
      vertex 2.54 -2.54 -4.8
    endloop
  endfacet
  facet normal -0 0 -1
    outer loop
      vertex -2.54 -2.54 -4.8
      vertex -3.9 -3.9 -4.8
      vertex -2.54 2.54 -4.8
    endloop
  endfacet
  facet normal 0 0 -1
    outer loop
      vertex -3.9 -3.9 -4.8
      vertex -2.54 -2.54 -4.8
      vertex 3.9 -3.9 -4.8
    endloop
  endfacet
  facet normal 0 0 -1
    outer loop
      vertex 2.54 2.54 -4.8
      vertex 3.9 3.9 -4.8
      vertex 2.54 -2.54 -4.8
    endloop
  endfacet
  facet normal 0 0 -1
    outer loop
      vertex -2.54 2.54 -4.8
      vertex 3.9 3.9 -4.8
      vertex 2.54 2.54 -4.8
    endloop
  endfacet
  facet normal 0 0 -1
    outer loop
      vertex -2.54 2.54 -4.8
      vertex -3.9 3.9 -4.8
      vertex 3.9 3.9 -4.8
    endloop
  endfacet
  facet normal 0 0 -1
    outer loop
      vertex -3.9 3.9 -4.8
      vertex -2.54 2.54 -4.8
      vertex -3.9 -3.9 -4.8
    endloop
  endfacet
  facet normal -1 0 0
    outer loop
      vertex -3.9 -3.9 -4.8
      vertex -3.9 3.9 4.8
      vertex -3.9 3.9 -4.8
    endloop
  endfacet
  facet normal -1 -0 0
    outer loop
      vertex -3.9 3.9 4.8
      vertex -3.9 -3.9 -4.8
      vertex -3.9 -3.9 4.8
    endloop
  endfacet
  facet normal 0 1 -0
    outer loop
      vertex 3.9 3.9 -4.8
      vertex -3.9 3.9 4.8
      vertex 3.9 3.9 4.8
    endloop
  endfacet
  facet normal 0 1 0
    outer loop
      vertex -3.9 3.9 4.8
      vertex 3.9 3.9 -4.8
      vertex -3.9 3.9 -4.8
    endloop
  endfacet
  facet normal 0 -1 0
    outer loop
      vertex -3.9 -3.9 -4.8
      vertex 3.9 -3.9 4.8
      vertex -3.9 -3.9 4.8
    endloop
  endfacet
  facet normal 0 -1 -0
    outer loop
      vertex 3.9 -3.9 4.8
      vertex -3.9 -3.9 -4.8
      vertex 3.9 -3.9 -4.8
    endloop
  endfacet
  facet normal -1 0 0
    outer loop
      vertex 2.54 -2.54 -4.8
      vertex 2.54 2.54 -2.2
      vertex 2.54 2.54 -4.8
    endloop
  endfacet
  facet normal -1 -0 0
    outer loop
      vertex 2.54 2.54 -2.2
      vertex 2.54 -2.54 -4.8
      vertex 2.54 -2.54 -2.2
    endloop
  endfacet
  facet normal 0 0 -1
    outer loop
      vertex -2.54 -2.54 -2.2
      vertex 2.54 2.54 -2.2
      vertex 2.54 -2.54 -2.2
    endloop
  endfacet
  facet normal -0 0 -1
    outer loop
      vertex 2.54 2.54 -2.2
      vertex -2.54 -2.54 -2.2
      vertex -2.54 2.54 -2.2
    endloop
  endfacet
  facet normal 1 -0 0
    outer loop
      vertex -2.54 -2.54 -2.2
      vertex -2.54 2.54 -4.8
      vertex -2.54 2.54 -2.2
    endloop
  endfacet
  facet normal 1 0 0
    outer loop
      vertex -2.54 2.54 -4.8
      vertex -2.54 -2.54 -2.2
      vertex -2.54 -2.54 -4.8
    endloop
  endfacet
  facet normal 0 -1 0
    outer loop
      vertex -2.54 2.54 -4.8
      vertex 2.54 2.54 -2.2
      vertex -2.54 2.54 -2.2
    endloop
  endfacet
  facet normal 0 -1 -0
    outer loop
      vertex 2.54 2.54 -2.2
      vertex -2.54 2.54 -4.8
      vertex 2.54 2.54 -4.8
    endloop
  endfacet
  facet normal 0 1 -0
    outer loop
      vertex 2.54 -2.54 -4.8
      vertex -2.54 -2.54 -2.2
      vertex 2.54 -2.54 -2.2
    endloop
  endfacet
  facet normal 0 1 0
    outer loop
      vertex -2.54 -2.54 -2.2
      vertex 2.54 -2.54 -4.8
      vertex -2.54 -2.54 -4.8
    endloop
  endfacet
endsolid OpenSCAD_Model
