solid OpenSCAD_Model
  facet normal 0 0 -1
    outer loop
      vertex 1.31813 -6.07705 4.8
      vertex 1.99018 -5.44595 4.8
      vertex 1.79326 -5.68399 4.8
    endloop
  endfacet
  facet normal -0 0 -1
    outer loop
      vertex 0.760182 1.6604 4.8
      vertex 0.460958 1.58357 4.8
      vertex 1.04742 1.77413 4.8
    endloop
  endfacet
  facet normal -0 0 -1
    outer loop
      vertex 2.15571 2.81489 4.8
      vertex 1.99018 2.55405 4.8
      vertex 2.28725 3.09441 4.8
    endloop
  endfacet
  facet normal 0 0 -1
    outer loop
      vertex 0.460958 1.58357 4.8
      vertex 1.31813 1.92295 4.8
      vertex 1.04742 1.77413 4.8
    endloop
  endfacet
  facet normal 0 0 -1
    outer loop
      vertex 2.28725 -4.90559 4.8
      vertex 2.15571 -5.18511 4.8
      vertex 1.31813 -6.07705 4.8
    endloop
  endfacet
  facet normal -0 0 -1
    outer loop
      vertex 1.56806 -5.89546 4.8
      vertex 1.31813 -6.07705 4.8
      vertex 1.79326 -5.68399 4.8
    endloop
  endfacet
  facet normal 0 0 -1
    outer loop
      vertex 2.15571 -5.18511 4.8
      vertex 1.99018 -5.44595 4.8
      vertex 1.31813 -6.07705 4.8
    endloop
  endfacet
  facet normal 0 0 -1
    outer loop
      vertex 1.31813 1.92295 4.8
      vertex 1.79326 2.31601 4.8
      vertex 1.56806 2.10454 4.8
    endloop
  endfacet
  facet normal -0 0 -1
    outer loop
      vertex 2.46 -4 4.8
      vertex 2.4406 -4.30832 4.8
      vertex 2.38271 -3.38822 4.8
    endloop
  endfacet
  facet normal 0 0 -1
    outer loop
      vertex 1.31813 1.92295 4.8
      vertex 1.99018 2.55405 4.8
      vertex 1.79326 2.31601 4.8
    endloop
  endfacet
  facet normal 0 0 -1
    outer loop
      vertex 2.4406 -4.30832 4.8
      vertex 2.38271 -4.61178 4.8
      vertex 2.28725 -4.90559 4.8
    endloop
  endfacet
  facet normal 0 0 -1
    outer loop
      vertex 2.28725 3.09441 4.8
      vertex 1.99018 2.55405 4.8
      vertex 1.31813 1.92295 4.8
    endloop
  endfacet
  facet normal 0 -0 -1
    outer loop
      vertex 2.38271 -3.38822 4.8
      vertex 2.4406 -4.30832 4.8
      vertex 2.28725 -4.90559 4.8
    endloop
  endfacet
  facet normal 0 0 -1
    outer loop
      vertex 0.460958 1.58357 4.8
      vertex 2.28725 3.09441 4.8
      vertex 1.31813 1.92295 4.8
    endloop
  endfacet
  facet normal 0 0 -1
    outer loop
      vertex 2.38271 -3.38822 4.8
      vertex 2.28725 -4.90559 4.8
      vertex 1.31813 -6.07705 4.8
    endloop
  endfacet
  facet normal 0 0 -1
    outer loop
      vertex 2.4406 3.69168 4.8
      vertex 2.38271 3.38822 4.8
      vertex 2.28725 3.09441 4.8
    endloop
  endfacet
  facet normal 0 0 -1
    outer loop
      vertex 1.56806 -2.10454 4.8
      vertex 1.79326 -2.31601 4.8
      vertex 2.15571 -2.81489 4.8
    endloop
  endfacet
  facet normal 0 -0 -1
    outer loop
      vertex 2.38271 4.61178 4.8
      vertex 2.4406 3.69168 4.8
      vertex 2.28725 3.09441 4.8
    endloop
  endfacet
  facet normal 0 0 -1
    outer loop
      vertex 2.38271 -3.38822 4.8
      vertex 2.15571 -2.81489 4.8
      vertex 2.28725 -3.09441 4.8
    endloop
  endfacet
  facet normal 0 0 -1
    outer loop
      vertex 2.4406 4.30832 4.8
      vertex 2.46 4 4.8
      vertex 2.4406 3.69168 4.8
    endloop
  endfacet
  facet normal -0 0 -1
    outer loop
      vertex 1.56806 -2.10454 4.8
      vertex 1.31813 -6.07705 4.8
      vertex 0.154465 -1.54485 4.8
    endloop
  endfacet
  facet normal 0 0 -1
    outer loop
      vertex 2.38271 4.61178 4.8
      vertex 2.4406 4.30832 4.8
      vertex 2.4406 3.69168 4.8
    endloop
  endfacet
  facet normal 0 0 -1
    outer loop
      vertex 0.460958 1.58357 4.8
      vertex 2.38271 4.61178 4.8
      vertex 2.28725 3.09441 4.8
    endloop
  endfacet
  facet normal -0 -0 -1
    outer loop
      vertex 1.04742 6.22587 4.8
      vertex 2.28725 4.90559 4.8
      vertex 0.760182 6.3396 4.8
    endloop
  endfacet
  facet normal -0 -0 -1
    outer loop
      vertex 1.79326 5.68399 4.8
      vertex 2.15571 5.18511 4.8
      vertex 1.56806 5.89546 4.8
    endloop
  endfacet
  facet normal 0 0 -1
    outer loop
      vertex 1.56806 5.89546 4.8
      vertex 2.15571 5.18511 4.8
      vertex 2.28725 4.90559 4.8
    endloop
  endfacet
  facet normal 0 0 -1
    outer loop
      vertex 2.15571 5.18511 4.8
      vertex 1.79326 5.68399 4.8
      vertex 1.99018 5.44595 4.8
    endloop
  endfacet
  facet normal 0 0 -1
    outer loop
      vertex 1.04742 6.22587 4.8
      vertex 1.56806 5.89546 4.8
      vertex 2.28725 4.90559 4.8
    endloop
  endfacet
  facet normal -0 -0 -1
    outer loop
      vertex 0.760182 6.3396 4.8
      vertex 2.28725 4.90559 4.8
      vertex 0.460958 6.41643 4.8
    endloop
  endfacet
  facet normal 0 0 -1
    outer loop
      vertex 1.56806 5.89546 4.8
      vertex 1.04742 6.22587 4.8
      vertex 1.31813 6.07705 4.8
    endloop
  endfacet
  facet normal 0 0 -1
    outer loop
      vertex 0.460958 6.41643 4.8
      vertex 2.28725 4.90559 4.8
      vertex 2.38271 4.61178 4.8
    endloop
  endfacet
  facet normal 0 0 -1
    outer loop
      vertex 0.460958 1.58357 4.8
      vertex 0.460958 6.41643 4.8
      vertex 2.38271 4.61178 4.8
    endloop
  endfacet
  facet normal 0 0 -1
    outer loop
      vertex -0.460958 1.58357 4.8
      vertex -0.460958 6.41643 4.8
      vertex 0.460958 6.41643 4.8
    endloop
  endfacet
  facet normal 0 0 -1
    outer loop
      vertex -0.460958 6.41643 4.8
      vertex -0.154465 6.45515 4.8
      vertex 0.154465 6.45515 4.8
    endloop
  endfacet
  facet normal 0 0 -1
    outer loop
      vertex 0.460958 6.41643 4.8
      vertex -0.460958 6.41643 4.8
      vertex 0.154465 6.45515 4.8
    endloop
  endfacet
  facet normal 0 0 -1
    outer loop
      vertex -2.28725 4.90559 4.8
      vertex -0.760182 6.3396 4.8
      vertex -0.460958 6.41643 4.8
    endloop
  endfacet
  facet normal 0 -0 -1
    outer loop
      vertex -2.15571 5.18511 4.8
      vertex -1.04742 6.22587 4.8
      vertex -2.28725 4.90559 4.8
    endloop
  endfacet
  facet normal 0 0 -1
    outer loop
      vertex -2.15571 5.18511 4.8
      vertex -1.99018 5.44595 4.8
      vertex -1.04742 6.22587 4.8
    endloop
  endfacet
  facet normal 0 0 -1
    outer loop
      vertex -1.79326 5.68399 4.8
      vertex -1.56806 5.89546 4.8
      vertex -1.31813 6.07705 4.8
    endloop
  endfacet
  facet normal 0 0 -1
    outer loop
      vertex -1.04742 6.22587 4.8
      vertex -1.79326 5.68399 4.8
      vertex -1.31813 6.07705 4.8
    endloop
  endfacet
  facet normal 0 0 -1
    outer loop
      vertex -1.04742 6.22587 4.8
      vertex -1.99018 5.44595 4.8
      vertex -1.79326 5.68399 4.8
    endloop
  endfacet
  facet normal 0 0 -1
    outer loop
      vertex -2.28725 4.90559 4.8
      vertex -1.04742 6.22587 4.8
      vertex -0.760182 6.3396 4.8
    endloop
  endfacet
  facet normal 0 0 -1
    outer loop
      vertex -2.38271 4.61178 4.8
      vertex -2.28725 4.90559 4.8
      vertex -0.460958 6.41643 4.8
    endloop
  endfacet
  facet normal 0 0 -1
    outer loop
      vertex -2.28725 3.09441 4.8
      vertex -2.38271 4.61178 4.8
      vertex -0.460958 6.41643 4.8
    endloop
  endfacet
  facet normal 0 0 -1
    outer loop
      vertex -2.4406 3.69168 4.8
      vertex -2.4406 4.30832 4.8
      vertex -2.38271 4.61178 4.8
    endloop
  endfacet
  facet normal 0 0 -1
    outer loop
      vertex -2.4406 3.69168 4.8
      vertex -2.46 4 4.8
      vertex -2.4406 4.30832 4.8
    endloop
  endfacet
  facet normal 0 0 -1
    outer loop
      vertex -2.38271 3.38822 4.8
      vertex -2.4406 3.69168 4.8
      vertex -2.28725 3.09441 4.8
    endloop
  endfacet
  facet normal 0 0 -1
    outer loop
      vertex -2.28725 3.09441 4.8
      vertex -2.4406 3.69168 4.8
      vertex -2.38271 4.61178 4.8
    endloop
  endfacet
  facet normal 0 0 -1
    outer loop
      vertex -1.31813 1.92295 4.8
      vertex -2.28725 3.09441 4.8
      vertex -0.460958 1.58357 4.8
    endloop
  endfacet
  facet normal 0 0 -1
    outer loop
      vertex -0.460958 1.58357 4.8
      vertex -2.28725 3.09441 4.8
      vertex -0.460958 6.41643 4.8
    endloop
  endfacet
  facet normal 0 0 -1
    outer loop
      vertex -1.99018 -2.55405 4.8
      vertex -1.79326 -2.31601 4.8
      vertex -1.31813 -1.92295 4.8
    endloop
  endfacet
  facet normal 0 0 -1
    outer loop
      vertex -2.28725 3.09441 4.8
      vertex -1.99018 2.55405 4.8
      vertex -2.15571 2.81489 4.8
    endloop
  endfacet
  facet normal 0 0 -1
    outer loop
      vertex -1.99018 -2.55405 4.8
      vertex -2.28725 -3.09441 4.8
      vertex -2.15571 -2.81489 4.8
    endloop
  endfacet
  facet normal 0 0 -1
    outer loop
      vertex -2.28725 3.09441 4.8
      vertex -1.31813 1.92295 4.8
      vertex -1.99018 2.55405 4.8
    endloop
  endfacet
  facet normal 0 0 -1
    outer loop
      vertex -1.99018 2.55405 4.8
      vertex -1.31813 1.92295 4.8
      vertex -1.79326 2.31601 4.8
    endloop
  endfacet
  facet normal 0 0 -1
    outer loop
      vertex -1.31813 -1.92295 4.8
      vertex -0.154465 -1.54485 4.8
      vertex -1.04742 -6.22587 4.8
    endloop
  endfacet
  facet normal 0 0 -1
    outer loop
      vertex -1.79326 2.31601 4.8
      vertex -1.31813 1.92295 4.8
      vertex -1.56806 2.10454 4.8
    endloop
  endfacet
  facet normal 0 -0 -1
    outer loop
      vertex -1.04742 -1.77413 4.8
      vertex -0.760182 -1.6604 4.8
      vertex -1.31813 -1.92295 4.8
    endloop
  endfacet
  facet normal 0 0 -1
    outer loop
      vertex -0.460958 1.58357 4.8
      vertex -1.04742 1.77413 4.8
      vertex -1.31813 1.92295 4.8
    endloop
  endfacet
  facet normal 0 -0 -1
    outer loop
      vertex -0.760182 -1.6604 4.8
      vertex -0.154465 -1.54485 4.8
      vertex -1.31813 -1.92295 4.8
    endloop
  endfacet
  facet normal 0 0 -1
    outer loop
      vertex 0.460958 1.58357 4.8
      vertex -0.460958 1.58357 4.8
      vertex 0.460958 6.41643 4.8
    endloop
  endfacet
  facet normal 0 -0 -1
    outer loop
      vertex -0.154465 -1.54485 4.8
      vertex 0.154465 -1.54485 4.8
      vertex -1.04742 -6.22587 4.8
    endloop
  endfacet
  facet normal 0 0 -1
    outer loop
      vertex -1.04742 1.77413 4.8
      vertex -0.460958 1.58357 4.8
      vertex -0.760182 1.6604 4.8
    endloop
  endfacet
  facet normal -0 -0 -1
    outer loop
      vertex 0.760182 -1.6604 4.8
      vertex 1.56806 -2.10454 4.8
      vertex 0.154465 -1.54485 4.8
    endloop
  endfacet
  facet normal -0 0 -1
    outer loop
      vertex 0.460958 1.58357 4.8
      vertex 0.154465 1.54485 4.8
      vertex -0.460958 1.58357 4.8
    endloop
  endfacet
  facet normal -0 -0 -1
    outer loop
      vertex 1.04742 -1.77413 4.8
      vertex 1.56806 -2.10454 4.8
      vertex 0.760182 -1.6604 4.8
    endloop
  endfacet
  facet normal 0 0 -1
    outer loop
      vertex -0.460958 1.58357 4.8
      vertex 0.154465 1.54485 4.8
      vertex -0.154465 1.54485 4.8
    endloop
  endfacet
  facet normal 0 0 -1
    outer loop
      vertex 2.38271 -3.38822 4.8
      vertex 1.56806 -2.10454 4.8
      vertex 2.15571 -2.81489 4.8
    endloop
  endfacet
  facet normal -0 0 -1
    outer loop
      vertex 0.760182 -6.3396 4.8
      vertex 0.460958 -6.41643 4.8
      vertex 1.04742 -6.22587 4.8
    endloop
  endfacet
  facet normal 0 0 -1
    outer loop
      vertex 2.38271 -3.38822 4.8
      vertex 2.4406 -3.69168 4.8
      vertex 2.46 -4 4.8
    endloop
  endfacet
  facet normal 0 -0 -1
    outer loop
      vertex 1.56806 -2.10454 4.8
      vertex 2.38271 -3.38822 4.8
      vertex 1.31813 -6.07705 4.8
    endloop
  endfacet
  facet normal 0 0 -1
    outer loop
      vertex 2.15571 -2.81489 4.8
      vertex 1.79326 -2.31601 4.8
      vertex 1.99018 -2.55405 4.8
    endloop
  endfacet
  facet normal 0 0 -1
    outer loop
      vertex 1.04742 -1.77413 4.8
      vertex 1.31813 -1.92295 4.8
      vertex 1.56806 -2.10454 4.8
    endloop
  endfacet
  facet normal 0 0 -1
    outer loop
      vertex 0.760182 -1.6604 4.8
      vertex 0.154465 -1.54485 4.8
      vertex 0.460958 -1.58357 4.8
    endloop
  endfacet
  facet normal 0 0 -1
    outer loop
      vertex 0.154465 -1.54485 4.8
      vertex 1.31813 -6.07705 4.8
      vertex 1.04742 -6.22587 4.8
    endloop
  endfacet
  facet normal 0 0 -1
    outer loop
      vertex -0.760182 -1.6604 4.8
      vertex -0.460958 -1.58357 4.8
      vertex -0.154465 -1.54485 4.8
    endloop
  endfacet
  facet normal 0 0 -1
    outer loop
      vertex -1.31813 -1.92295 4.8
      vertex -1.79326 -2.31601 4.8
      vertex -1.56806 -2.10454 4.8
    endloop
  endfacet
  facet normal 0 -0 -1
    outer loop
      vertex -1.99018 -2.55405 4.8
      vertex -1.31813 -1.92295 4.8
      vertex -2.28725 -3.09441 4.8
    endloop
  endfacet
  facet normal 0 0 -1
    outer loop
      vertex -2.28725 -3.09441 4.8
      vertex -1.31813 -1.92295 4.8
      vertex -1.04742 -6.22587 4.8
    endloop
  endfacet
  facet normal 0 -0 -1
    outer loop
      vertex -2.38271 -3.38822 4.8
      vertex -2.28725 -3.09441 4.8
      vertex -2.4406 -3.69168 4.8
    endloop
  endfacet
  facet normal 0 0 -1
    outer loop
      vertex -2.4406 -3.69168 4.8
      vertex -2.38271 -4.61178 4.8
      vertex -2.4406 -4.30832 4.8
    endloop
  endfacet
  facet normal 0 0 -1
    outer loop
      vertex -2.46 -4 4.8
      vertex -2.4406 -3.69168 4.8
      vertex -2.4406 -4.30832 4.8
    endloop
  endfacet
  facet normal 0 0 -1
    outer loop
      vertex -2.4406 -3.69168 4.8
      vertex -2.28725 -3.09441 4.8
      vertex -2.38271 -4.61178 4.8
    endloop
  endfacet
  facet normal 0 0 -1
    outer loop
      vertex -2.38271 -4.61178 4.8
      vertex -2.28725 -3.09441 4.8
      vertex -1.04742 -6.22587 4.8
    endloop
  endfacet
  facet normal 0 0 -1
    outer loop
      vertex -2.28725 -4.90559 4.8
      vertex -2.38271 -4.61178 4.8
      vertex -1.04742 -6.22587 4.8
    endloop
  endfacet
  facet normal 0 0 -1
    outer loop
      vertex -2.15571 -5.18511 4.8
      vertex -2.28725 -4.90559 4.8
      vertex -1.04742 -6.22587 4.8
    endloop
  endfacet
  facet normal 0 0 -1
    outer loop
      vertex -1.04742 -6.22587 4.8
      vertex 0.154465 -1.54485 4.8
      vertex 1.04742 -6.22587 4.8
    endloop
  endfacet
  facet normal 0 0 -1
    outer loop
      vertex -1.79326 -5.68399 4.8
      vertex -1.04742 -6.22587 4.8
      vertex -1.56806 -5.89546 4.8
    endloop
  endfacet
  facet normal 0 0 -1
    outer loop
      vertex -1.79326 -5.68399 4.8
      vertex -1.99018 -5.44595 4.8
      vertex -1.04742 -6.22587 4.8
    endloop
  endfacet
  facet normal 0 0 -1
    outer loop
      vertex -1.31813 -6.07705 4.8
      vertex -1.56806 -5.89546 4.8
      vertex -1.04742 -6.22587 4.8
    endloop
  endfacet
  facet normal 0 0 -1
    outer loop
      vertex -1.04742 -6.22587 4.8
      vertex -1.99018 -5.44595 4.8
      vertex -2.15571 -5.18511 4.8
    endloop
  endfacet
  facet normal 0 0 -1
    outer loop
      vertex 0.460958 -6.41643 4.8
      vertex -1.04742 -6.22587 4.8
      vertex 1.04742 -6.22587 4.8
    endloop
  endfacet
  facet normal 0 0 -1
    outer loop
      vertex -0.460958 -6.41643 4.8
      vertex -0.760182 -6.3396 4.8
      vertex -1.04742 -6.22587 4.8
    endloop
  endfacet
  facet normal 0 0 -1
    outer loop
      vertex 0.460958 -6.41643 4.8
      vertex -0.460958 -6.41643 4.8
      vertex -1.04742 -6.22587 4.8
    endloop
  endfacet
  facet normal -0 0 -1
    outer loop
      vertex 0.460958 -6.41643 4.8
      vertex 0.154465 -6.45515 4.8
      vertex -0.460958 -6.41643 4.8
    endloop
  endfacet
  facet normal 0 0 -1
    outer loop
      vertex -0.460958 -6.41643 4.8
      vertex 0.154465 -6.45515 4.8
      vertex -0.154465 -6.45515 4.8
    endloop
  endfacet
  facet normal 0.248697 -0.968581 0
    outer loop
      vertex 0.760182 1.6604 4.8
      vertex 0.460958 1.58357 6.5
      vertex 0.460958 1.58357 4.8
    endloop
  endfacet
  facet normal 0.248697 -0.968581 0
    outer loop
      vertex 0.760182 1.6604 4.8
      vertex 0.760182 1.6604 6.5
      vertex 0.460958 1.58357 6.5
    endloop
  endfacet
  facet normal 0.368137 -0.929772 0
    outer loop
      vertex 1.04742 1.77413 4.8
      vertex 0.760182 1.6604 6.5
      vertex 0.760182 1.6604 4.8
    endloop
  endfacet
  facet normal 0.368137 -0.929772 0
    outer loop
      vertex 1.04742 1.77413 4.8
      vertex 1.04742 1.77413 6.5
      vertex 0.760182 1.6604 6.5
    endloop
  endfacet
  facet normal 0.481744 -0.876312 0
    outer loop
      vertex 1.31813 1.92295 4.8
      vertex 1.04742 1.77413 6.5
      vertex 1.04742 1.77413 4.8
    endloop
  endfacet
  facet normal 0.481744 -0.876312 0
    outer loop
      vertex 1.31813 1.92295 4.8
      vertex 1.31813 1.92295 6.5
      vertex 1.04742 1.77413 6.5
    endloop
  endfacet
  facet normal 0.587796 -0.809009 0
    outer loop
      vertex 1.56806 2.10454 4.8
      vertex 1.31813 1.92295 6.5
      vertex 1.31813 1.92295 4.8
    endloop
  endfacet
  facet normal 0.587796 -0.809009 0
    outer loop
      vertex 1.56806 2.10454 4.8
      vertex 1.56806 2.10454 6.5
      vertex 1.31813 1.92295 6.5
    endloop
  endfacet
  facet normal 0.684535 -0.72898 0
    outer loop
      vertex 1.79326 2.31601 4.8
      vertex 1.56806 2.10454 6.5
      vertex 1.56806 2.10454 4.8
    endloop
  endfacet
  facet normal 0.684535 -0.72898 0
    outer loop
      vertex 1.79326 2.31601 4.8
      vertex 1.79326 2.31601 6.5
      vertex 1.56806 2.10454 6.5
    endloop
  endfacet
  facet normal 0.770519 -0.637417 0
    outer loop
      vertex 1.99018 2.55405 4.8
      vertex 1.79326 2.31601 6.5
      vertex 1.79326 2.31601 4.8
    endloop
  endfacet
  facet normal 0.770519 -0.637417 0
    outer loop
      vertex 1.99018 2.55405 4.8
      vertex 1.99018 2.55405 6.5
      vertex 1.79326 2.31601 6.5
    endloop
  endfacet
  facet normal 0.844334 -0.535817 0
    outer loop
      vertex 2.15571 2.81489 4.8
      vertex 1.99018 2.55405 6.5
      vertex 1.99018 2.55405 4.8
    endloop
  endfacet
  facet normal 0.844334 -0.535817 0
    outer loop
      vertex 2.15571 2.81489 4.8
      vertex 2.15571 2.81489 6.5
      vertex 1.99018 2.55405 6.5
    endloop
  endfacet
  facet normal 0.904817 -0.4258 0
    outer loop
      vertex 2.28725 3.09441 4.8
      vertex 2.15571 2.81489 6.5
      vertex 2.15571 2.81489 4.8
    endloop
  endfacet
  facet normal 0.904817 -0.4258 0
    outer loop
      vertex 2.28725 3.09441 4.8
      vertex 2.28725 3.09441 6.5
      vertex 2.15571 2.81489 6.5
    endloop
  endfacet
  facet normal 0.951061 -0.309003 0
    outer loop
      vertex 2.38271 3.38822 4.8
      vertex 2.28725 3.09441 6.5
      vertex 2.28725 3.09441 4.8
    endloop
  endfacet
  facet normal 0.951061 -0.309003 0
    outer loop
      vertex 2.38271 3.38822 4.8
      vertex 2.38271 3.38822 6.5
      vertex 2.28725 3.09441 6.5
    endloop
  endfacet
  facet normal 0.982286 -0.187387 0
    outer loop
      vertex 2.4406 3.69168 4.8
      vertex 2.38271 3.38822 6.5
      vertex 2.38271 3.38822 4.8
    endloop
  endfacet
  facet normal 0.982286 -0.187387 0
    outer loop
      vertex 2.4406 3.69168 4.8
      vertex 2.4406 3.69168 6.5
      vertex 2.38271 3.38822 6.5
    endloop
  endfacet
  facet normal 0.998026 -0.0627975 0
    outer loop
      vertex 2.46 4 4.8
      vertex 2.4406 3.69168 6.5
      vertex 2.4406 3.69168 4.8
    endloop
  endfacet
  facet normal 0.998026 -0.0627975 0
    outer loop
      vertex 2.46 4 4.8
      vertex 2.46 4 6.5
      vertex 2.4406 3.69168 6.5
    endloop
  endfacet
  facet normal 0.998026 0.0627975 0
    outer loop
      vertex 2.4406 4.30832 4.8
      vertex 2.46 4 6.5
      vertex 2.46 4 4.8
    endloop
  endfacet
  facet normal 0.998026 0.0627975 -0
    outer loop
      vertex 2.4406 4.30832 4.8
      vertex 2.4406 4.30832 6.5
      vertex 2.46 4 6.5
    endloop
  endfacet
  facet normal 0.982286 0.187387 0
    outer loop
      vertex 2.38271 4.61178 4.8
      vertex 2.4406 4.30832 6.5
      vertex 2.4406 4.30832 4.8
    endloop
  endfacet
  facet normal 0.982286 0.187387 -0
    outer loop
      vertex 2.38271 4.61178 4.8
      vertex 2.38271 4.61178 6.5
      vertex 2.4406 4.30832 6.5
    endloop
  endfacet
  facet normal 0.951061 0.309003 0
    outer loop
      vertex 2.28725 4.90559 4.8
      vertex 2.38271 4.61178 6.5
      vertex 2.38271 4.61178 4.8
    endloop
  endfacet
  facet normal 0.951061 0.309003 -0
    outer loop
      vertex 2.28725 4.90559 4.8
      vertex 2.28725 4.90559 6.5
      vertex 2.38271 4.61178 6.5
    endloop
  endfacet
  facet normal 0.904817 0.4258 0
    outer loop
      vertex 2.15571 5.18511 4.8
      vertex 2.28725 4.90559 6.5
      vertex 2.28725 4.90559 4.8
    endloop
  endfacet
  facet normal 0.904817 0.4258 -0
    outer loop
      vertex 2.15571 5.18511 4.8
      vertex 2.15571 5.18511 6.5
      vertex 2.28725 4.90559 6.5
    endloop
  endfacet
  facet normal 0.844334 0.535817 0
    outer loop
      vertex 1.99018 5.44595 4.8
      vertex 2.15571 5.18511 6.5
      vertex 2.15571 5.18511 4.8
    endloop
  endfacet
  facet normal 0.844334 0.535817 -0
    outer loop
      vertex 1.99018 5.44595 4.8
      vertex 1.99018 5.44595 6.5
      vertex 2.15571 5.18511 6.5
    endloop
  endfacet
  facet normal 0.770519 0.637417 0
    outer loop
      vertex 1.79326 5.68399 4.8
      vertex 1.99018 5.44595 6.5
      vertex 1.99018 5.44595 4.8
    endloop
  endfacet
  facet normal 0.770519 0.637417 -0
    outer loop
      vertex 1.79326 5.68399 4.8
      vertex 1.79326 5.68399 6.5
      vertex 1.99018 5.44595 6.5
    endloop
  endfacet
  facet normal 0.684535 0.72898 0
    outer loop
      vertex 1.56806 5.89546 4.8
      vertex 1.79326 5.68399 6.5
      vertex 1.79326 5.68399 4.8
    endloop
  endfacet
  facet normal 0.684535 0.72898 -0
    outer loop
      vertex 1.56806 5.89546 4.8
      vertex 1.56806 5.89546 6.5
      vertex 1.79326 5.68399 6.5
    endloop
  endfacet
  facet normal 0.587796 0.809009 0
    outer loop
      vertex 1.31813 6.07705 4.8
      vertex 1.56806 5.89546 6.5
      vertex 1.56806 5.89546 4.8
    endloop
  endfacet
  facet normal 0.587796 0.809009 -0
    outer loop
      vertex 1.31813 6.07705 4.8
      vertex 1.31813 6.07705 6.5
      vertex 1.56806 5.89546 6.5
    endloop
  endfacet
  facet normal 0.481744 0.876312 0
    outer loop
      vertex 1.04742 6.22587 4.8
      vertex 1.31813 6.07705 6.5
      vertex 1.31813 6.07705 4.8
    endloop
  endfacet
  facet normal 0.481744 0.876312 -0
    outer loop
      vertex 1.04742 6.22587 4.8
      vertex 1.04742 6.22587 6.5
      vertex 1.31813 6.07705 6.5
    endloop
  endfacet
  facet normal 0.368137 0.929772 0
    outer loop
      vertex 0.760182 6.3396 4.8
      vertex 1.04742 6.22587 6.5
      vertex 1.04742 6.22587 4.8
    endloop
  endfacet
  facet normal 0.368137 0.929772 -0
    outer loop
      vertex 0.760182 6.3396 4.8
      vertex 0.760182 6.3396 6.5
      vertex 1.04742 6.22587 6.5
    endloop
  endfacet
  facet normal 0.248697 0.968581 0
    outer loop
      vertex 0.460958 6.41643 4.8
      vertex 0.760182 6.3396 6.5
      vertex 0.760182 6.3396 4.8
    endloop
  endfacet
  facet normal 0.248697 0.968581 -0
    outer loop
      vertex 0.460958 6.41643 4.8
      vertex 0.460958 6.41643 6.5
      vertex 0.760182 6.3396 6.5
    endloop
  endfacet
  facet normal 0.125336 0.992114 0
    outer loop
      vertex 0.154465 6.45515 4.8
      vertex 0.460958 6.41643 6.5
      vertex 0.460958 6.41643 4.8
    endloop
  endfacet
  facet normal 0.125336 0.992114 -0
    outer loop
      vertex 0.154465 6.45515 4.8
      vertex 0.154465 6.45515 6.5
      vertex 0.460958 6.41643 6.5
    endloop
  endfacet
  facet normal 0 1 0
    outer loop
      vertex -0.154465 6.45515 4.8
      vertex 0.154465 6.45515 6.5
      vertex 0.154465 6.45515 4.8
    endloop
  endfacet
  facet normal 0 1 0
    outer loop
      vertex -0.154465 6.45515 4.8
      vertex -0.154465 6.45515 6.5
      vertex 0.154465 6.45515 6.5
    endloop
  endfacet
  facet normal -0.125336 0.992114 0
    outer loop
      vertex -0.460958 6.41643 4.8
      vertex -0.154465 6.45515 6.5
      vertex -0.154465 6.45515 4.8
    endloop
  endfacet
  facet normal -0.125336 0.992114 0
    outer loop
      vertex -0.460958 6.41643 4.8
      vertex -0.460958 6.41643 6.5
      vertex -0.154465 6.45515 6.5
    endloop
  endfacet
  facet normal -0.248697 0.968581 0
    outer loop
      vertex -0.760182 6.3396 4.8
      vertex -0.460958 6.41643 6.5
      vertex -0.460958 6.41643 4.8
    endloop
  endfacet
  facet normal -0.248697 0.968581 0
    outer loop
      vertex -0.760182 6.3396 4.8
      vertex -0.760182 6.3396 6.5
      vertex -0.460958 6.41643 6.5
    endloop
  endfacet
  facet normal -0.368137 0.929772 0
    outer loop
      vertex -1.04742 6.22587 4.8
      vertex -0.760182 6.3396 6.5
      vertex -0.760182 6.3396 4.8
    endloop
  endfacet
  facet normal -0.368137 0.929772 0
    outer loop
      vertex -1.04742 6.22587 4.8
      vertex -1.04742 6.22587 6.5
      vertex -0.760182 6.3396 6.5
    endloop
  endfacet
  facet normal -0.481744 0.876312 0
    outer loop
      vertex -1.31813 6.07705 4.8
      vertex -1.04742 6.22587 6.5
      vertex -1.04742 6.22587 4.8
    endloop
  endfacet
  facet normal -0.481744 0.876312 0
    outer loop
      vertex -1.31813 6.07705 4.8
      vertex -1.31813 6.07705 6.5
      vertex -1.04742 6.22587 6.5
    endloop
  endfacet
  facet normal -0.587796 0.809009 0
    outer loop
      vertex -1.56806 5.89546 4.8
      vertex -1.31813 6.07705 6.5
      vertex -1.31813 6.07705 4.8
    endloop
  endfacet
  facet normal -0.587796 0.809009 0
    outer loop
      vertex -1.56806 5.89546 4.8
      vertex -1.56806 5.89546 6.5
      vertex -1.31813 6.07705 6.5
    endloop
  endfacet
  facet normal -0.684535 0.72898 0
    outer loop
      vertex -1.79326 5.68399 4.8
      vertex -1.56806 5.89546 6.5
      vertex -1.56806 5.89546 4.8
    endloop
  endfacet
  facet normal -0.684535 0.72898 0
    outer loop
      vertex -1.79326 5.68399 4.8
      vertex -1.79326 5.68399 6.5
      vertex -1.56806 5.89546 6.5
    endloop
  endfacet
  facet normal -0.770519 0.637417 0
    outer loop
      vertex -1.99018 5.44595 4.8
      vertex -1.79326 5.68399 6.5
      vertex -1.79326 5.68399 4.8
    endloop
  endfacet
  facet normal -0.770519 0.637417 0
    outer loop
      vertex -1.99018 5.44595 4.8
      vertex -1.99018 5.44595 6.5
      vertex -1.79326 5.68399 6.5
    endloop
  endfacet
  facet normal -0.844334 0.535817 0
    outer loop
      vertex -2.15571 5.18511 4.8
      vertex -1.99018 5.44595 6.5
      vertex -1.99018 5.44595 4.8
    endloop
  endfacet
  facet normal -0.844334 0.535817 0
    outer loop
      vertex -2.15571 5.18511 4.8
      vertex -2.15571 5.18511 6.5
      vertex -1.99018 5.44595 6.5
    endloop
  endfacet
  facet normal -0.904817 0.4258 0
    outer loop
      vertex -2.28725 4.90559 4.8
      vertex -2.15571 5.18511 6.5
      vertex -2.15571 5.18511 4.8
    endloop
  endfacet
  facet normal -0.904817 0.4258 0
    outer loop
      vertex -2.28725 4.90559 4.8
      vertex -2.28725 4.90559 6.5
      vertex -2.15571 5.18511 6.5
    endloop
  endfacet
  facet normal -0.951061 0.309003 0
    outer loop
      vertex -2.38271 4.61178 4.8
      vertex -2.28725 4.90559 6.5
      vertex -2.28725 4.90559 4.8
    endloop
  endfacet
  facet normal -0.951061 0.309003 0
    outer loop
      vertex -2.38271 4.61178 4.8
      vertex -2.38271 4.61178 6.5
      vertex -2.28725 4.90559 6.5
    endloop
  endfacet
  facet normal -0.982286 0.187387 0
    outer loop
      vertex -2.4406 4.30832 4.8
      vertex -2.38271 4.61178 6.5
      vertex -2.38271 4.61178 4.8
    endloop
  endfacet
  facet normal -0.982286 0.187387 0
    outer loop
      vertex -2.4406 4.30832 4.8
      vertex -2.4406 4.30832 6.5
      vertex -2.38271 4.61178 6.5
    endloop
  endfacet
  facet normal -0.998026 0.0627975 0
    outer loop
      vertex -2.46 4 4.8
      vertex -2.4406 4.30832 6.5
      vertex -2.4406 4.30832 4.8
    endloop
  endfacet
  facet normal -0.998026 0.0627975 0
    outer loop
      vertex -2.46 4 4.8
      vertex -2.46 4 6.5
      vertex -2.4406 4.30832 6.5
    endloop
  endfacet
  facet normal -0.998026 -0.0627975 0
    outer loop
      vertex -2.4406 3.69168 4.8
      vertex -2.46 4 6.5
      vertex -2.46 4 4.8
    endloop
  endfacet
  facet normal -0.998026 -0.0627975 0
    outer loop
      vertex -2.4406 3.69168 4.8
      vertex -2.4406 3.69168 6.5
      vertex -2.46 4 6.5
    endloop
  endfacet
  facet normal -0.982286 -0.187387 0
    outer loop
      vertex -2.38271 3.38822 4.8
      vertex -2.4406 3.69168 6.5
      vertex -2.4406 3.69168 4.8
    endloop
  endfacet
  facet normal -0.982286 -0.187387 0
    outer loop
      vertex -2.38271 3.38822 4.8
      vertex -2.38271 3.38822 6.5
      vertex -2.4406 3.69168 6.5
    endloop
  endfacet
  facet normal -0.951061 -0.309003 0
    outer loop
      vertex -2.28725 3.09441 4.8
      vertex -2.38271 3.38822 6.5
      vertex -2.38271 3.38822 4.8
    endloop
  endfacet
  facet normal -0.951061 -0.309003 0
    outer loop
      vertex -2.28725 3.09441 4.8
      vertex -2.28725 3.09441 6.5
      vertex -2.38271 3.38822 6.5
    endloop
  endfacet
  facet normal -0.904817 -0.4258 0
    outer loop
      vertex -2.15571 2.81489 4.8
      vertex -2.28725 3.09441 6.5
      vertex -2.28725 3.09441 4.8
    endloop
  endfacet
  facet normal -0.904817 -0.4258 0
    outer loop
      vertex -2.15571 2.81489 4.8
      vertex -2.15571 2.81489 6.5
      vertex -2.28725 3.09441 6.5
    endloop
  endfacet
  facet normal -0.844334 -0.535817 0
    outer loop
      vertex -1.99018 2.55405 4.8
      vertex -2.15571 2.81489 6.5
      vertex -2.15571 2.81489 4.8
    endloop
  endfacet
  facet normal -0.844334 -0.535817 0
    outer loop
      vertex -1.99018 2.55405 4.8
      vertex -1.99018 2.55405 6.5
      vertex -2.15571 2.81489 6.5
    endloop
  endfacet
  facet normal -0.770519 -0.637417 0
    outer loop
      vertex -1.79326 2.31601 4.8
      vertex -1.99018 2.55405 6.5
      vertex -1.99018 2.55405 4.8
    endloop
  endfacet
  facet normal -0.770519 -0.637417 0
    outer loop
      vertex -1.79326 2.31601 4.8
      vertex -1.79326 2.31601 6.5
      vertex -1.99018 2.55405 6.5
    endloop
  endfacet
  facet normal -0.684535 -0.72898 0
    outer loop
      vertex -1.56806 2.10454 4.8
      vertex -1.79326 2.31601 6.5
      vertex -1.79326 2.31601 4.8
    endloop
  endfacet
  facet normal -0.684535 -0.72898 0
    outer loop
      vertex -1.56806 2.10454 4.8
      vertex -1.56806 2.10454 6.5
      vertex -1.79326 2.31601 6.5
    endloop
  endfacet
  facet normal -0.587796 -0.809009 0
    outer loop
      vertex -1.31813 1.92295 4.8
      vertex -1.56806 2.10454 6.5
      vertex -1.56806 2.10454 4.8
    endloop
  endfacet
  facet normal -0.587796 -0.809009 0
    outer loop
      vertex -1.31813 1.92295 4.8
      vertex -1.31813 1.92295 6.5
      vertex -1.56806 2.10454 6.5
    endloop
  endfacet
  facet normal -0.481744 -0.876312 0
    outer loop
      vertex -1.04742 1.77413 4.8
      vertex -1.31813 1.92295 6.5
      vertex -1.31813 1.92295 4.8
    endloop
  endfacet
  facet normal -0.481744 -0.876312 0
    outer loop
      vertex -1.04742 1.77413 4.8
      vertex -1.04742 1.77413 6.5
      vertex -1.31813 1.92295 6.5
    endloop
  endfacet
  facet normal -0.368137 -0.929772 0
    outer loop
      vertex -0.760182 1.6604 4.8
      vertex -1.04742 1.77413 6.5
      vertex -1.04742 1.77413 4.8
    endloop
  endfacet
  facet normal -0.368137 -0.929772 0
    outer loop
      vertex -0.760182 1.6604 4.8
      vertex -0.760182 1.6604 6.5
      vertex -1.04742 1.77413 6.5
    endloop
  endfacet
  facet normal -0.248697 -0.968581 0
    outer loop
      vertex -0.460958 1.58357 4.8
      vertex -0.760182 1.6604 6.5
      vertex -0.760182 1.6604 4.8
    endloop
  endfacet
  facet normal -0.248697 -0.968581 0
    outer loop
      vertex -0.460958 1.58357 4.8
      vertex -0.460958 1.58357 6.5
      vertex -0.760182 1.6604 6.5
    endloop
  endfacet
  facet normal -0.125336 -0.992114 0
    outer loop
      vertex -0.154465 1.54485 4.8
      vertex -0.460958 1.58357 6.5
      vertex -0.460958 1.58357 4.8
    endloop
  endfacet
  facet normal -0.125336 -0.992114 0
    outer loop
      vertex -0.154465 1.54485 4.8
      vertex -0.154465 1.54485 6.5
      vertex -0.460958 1.58357 6.5
    endloop
  endfacet
  facet normal 0 -1 0
    outer loop
      vertex 0.154465 1.54485 4.8
      vertex -0.154465 1.54485 6.5
      vertex -0.154465 1.54485 4.8
    endloop
  endfacet
  facet normal 0 -1 0
    outer loop
      vertex 0.154465 1.54485 4.8
      vertex 0.154465 1.54485 6.5
      vertex -0.154465 1.54485 6.5
    endloop
  endfacet
  facet normal 0.125336 -0.992114 0
    outer loop
      vertex 0.460958 1.58357 4.8
      vertex 0.154465 1.54485 6.5
      vertex 0.154465 1.54485 4.8
    endloop
  endfacet
  facet normal 0.125336 -0.992114 0
    outer loop
      vertex 0.460958 1.58357 4.8
      vertex 0.460958 1.58357 6.5
      vertex 0.154465 1.54485 6.5
    endloop
  endfacet
  facet normal 0.248697 -0.968581 0
    outer loop
      vertex 0.760182 -6.3396 4.8
      vertex 0.460958 -6.41643 6.5
      vertex 0.460958 -6.41643 4.8
    endloop
  endfacet
  facet normal 0.248697 -0.968581 0
    outer loop
      vertex 0.760182 -6.3396 4.8
      vertex 0.760182 -6.3396 6.5
      vertex 0.460958 -6.41643 6.5
    endloop
  endfacet
  facet normal 0.368137 -0.929772 0
    outer loop
      vertex 1.04742 -6.22587 4.8
      vertex 0.760182 -6.3396 6.5
      vertex 0.760182 -6.3396 4.8
    endloop
  endfacet
  facet normal 0.368137 -0.929772 0
    outer loop
      vertex 1.04742 -6.22587 4.8
      vertex 1.04742 -6.22587 6.5
      vertex 0.760182 -6.3396 6.5
    endloop
  endfacet
  facet normal 0.481744 -0.876312 0
    outer loop
      vertex 1.31813 -6.07705 4.8
      vertex 1.04742 -6.22587 6.5
      vertex 1.04742 -6.22587 4.8
    endloop
  endfacet
  facet normal 0.481744 -0.876312 0
    outer loop
      vertex 1.31813 -6.07705 4.8
      vertex 1.31813 -6.07705 6.5
      vertex 1.04742 -6.22587 6.5
    endloop
  endfacet
  facet normal 0.587796 -0.809009 0
    outer loop
      vertex 1.56806 -5.89546 4.8
      vertex 1.31813 -6.07705 6.5
      vertex 1.31813 -6.07705 4.8
    endloop
  endfacet
  facet normal 0.587796 -0.809009 0
    outer loop
      vertex 1.56806 -5.89546 4.8
      vertex 1.56806 -5.89546 6.5
      vertex 1.31813 -6.07705 6.5
    endloop
  endfacet
  facet normal 0.684535 -0.72898 0
    outer loop
      vertex 1.79326 -5.68399 4.8
      vertex 1.56806 -5.89546 6.5
      vertex 1.56806 -5.89546 4.8
    endloop
  endfacet
  facet normal 0.684535 -0.72898 0
    outer loop
      vertex 1.79326 -5.68399 4.8
      vertex 1.79326 -5.68399 6.5
      vertex 1.56806 -5.89546 6.5
    endloop
  endfacet
  facet normal 0.770519 -0.637417 0
    outer loop
      vertex 1.99018 -5.44595 4.8
      vertex 1.79326 -5.68399 6.5
      vertex 1.79326 -5.68399 4.8
    endloop
  endfacet
  facet normal 0.770519 -0.637417 0
    outer loop
      vertex 1.99018 -5.44595 4.8
      vertex 1.99018 -5.44595 6.5
      vertex 1.79326 -5.68399 6.5
    endloop
  endfacet
  facet normal 0.844334 -0.535817 0
    outer loop
      vertex 2.15571 -5.18511 4.8
      vertex 1.99018 -5.44595 6.5
      vertex 1.99018 -5.44595 4.8
    endloop
  endfacet
  facet normal 0.844334 -0.535817 0
    outer loop
      vertex 2.15571 -5.18511 4.8
      vertex 2.15571 -5.18511 6.5
      vertex 1.99018 -5.44595 6.5
    endloop
  endfacet
  facet normal 0.904817 -0.4258 0
    outer loop
      vertex 2.28725 -4.90559 4.8
      vertex 2.15571 -5.18511 6.5
      vertex 2.15571 -5.18511 4.8
    endloop
  endfacet
  facet normal 0.904817 -0.4258 0
    outer loop
      vertex 2.28725 -4.90559 4.8
      vertex 2.28725 -4.90559 6.5
      vertex 2.15571 -5.18511 6.5
    endloop
  endfacet
  facet normal 0.951061 -0.309003 0
    outer loop
      vertex 2.38271 -4.61178 4.8
      vertex 2.28725 -4.90559 6.5
      vertex 2.28725 -4.90559 4.8
    endloop
  endfacet
  facet normal 0.951061 -0.309003 0
    outer loop
      vertex 2.38271 -4.61178 4.8
      vertex 2.38271 -4.61178 6.5
      vertex 2.28725 -4.90559 6.5
    endloop
  endfacet
  facet normal 0.982286 -0.187387 0
    outer loop
      vertex 2.4406 -4.30832 4.8
      vertex 2.38271 -4.61178 6.5
      vertex 2.38271 -4.61178 4.8
    endloop
  endfacet
  facet normal 0.982286 -0.187387 0
    outer loop
      vertex 2.4406 -4.30832 4.8
      vertex 2.4406 -4.30832 6.5
      vertex 2.38271 -4.61178 6.5
    endloop
  endfacet
  facet normal 0.998026 -0.0627975 0
    outer loop
      vertex 2.46 -4 4.8
      vertex 2.4406 -4.30832 6.5
      vertex 2.4406 -4.30832 4.8
    endloop
  endfacet
  facet normal 0.998026 -0.0627975 0
    outer loop
      vertex 2.46 -4 4.8
      vertex 2.46 -4 6.5
      vertex 2.4406 -4.30832 6.5
    endloop
  endfacet
  facet normal 0.998026 0.0627975 0
    outer loop
      vertex 2.4406 -3.69168 4.8
      vertex 2.46 -4 6.5
      vertex 2.46 -4 4.8
    endloop
  endfacet
  facet normal 0.998026 0.0627975 -0
    outer loop
      vertex 2.4406 -3.69168 4.8
      vertex 2.4406 -3.69168 6.5
      vertex 2.46 -4 6.5
    endloop
  endfacet
  facet normal 0.982286 0.187387 0
    outer loop
      vertex 2.38271 -3.38822 4.8
      vertex 2.4406 -3.69168 6.5
      vertex 2.4406 -3.69168 4.8
    endloop
  endfacet
  facet normal 0.982286 0.187387 -0
    outer loop
      vertex 2.38271 -3.38822 4.8
      vertex 2.38271 -3.38822 6.5
      vertex 2.4406 -3.69168 6.5
    endloop
  endfacet
  facet normal 0.951061 0.309003 0
    outer loop
      vertex 2.28725 -3.09441 4.8
      vertex 2.38271 -3.38822 6.5
      vertex 2.38271 -3.38822 4.8
    endloop
  endfacet
  facet normal 0.951061 0.309003 -0
    outer loop
      vertex 2.28725 -3.09441 4.8
      vertex 2.28725 -3.09441 6.5
      vertex 2.38271 -3.38822 6.5
    endloop
  endfacet
  facet normal 0.904817 0.4258 0
    outer loop
      vertex 2.15571 -2.81489 4.8
      vertex 2.28725 -3.09441 6.5
      vertex 2.28725 -3.09441 4.8
    endloop
  endfacet
  facet normal 0.904817 0.4258 -0
    outer loop
      vertex 2.15571 -2.81489 4.8
      vertex 2.15571 -2.81489 6.5
      vertex 2.28725 -3.09441 6.5
    endloop
  endfacet
  facet normal 0.844334 0.535817 0
    outer loop
      vertex 1.99018 -2.55405 4.8
      vertex 2.15571 -2.81489 6.5
      vertex 2.15571 -2.81489 4.8
    endloop
  endfacet
  facet normal 0.844334 0.535817 -0
    outer loop
      vertex 1.99018 -2.55405 4.8
      vertex 1.99018 -2.55405 6.5
      vertex 2.15571 -2.81489 6.5
    endloop
  endfacet
  facet normal 0.770519 0.637417 0
    outer loop
      vertex 1.79326 -2.31601 4.8
      vertex 1.99018 -2.55405 6.5
      vertex 1.99018 -2.55405 4.8
    endloop
  endfacet
  facet normal 0.770519 0.637417 -0
    outer loop
      vertex 1.79326 -2.31601 4.8
      vertex 1.79326 -2.31601 6.5
      vertex 1.99018 -2.55405 6.5
    endloop
  endfacet
  facet normal 0.684535 0.72898 0
    outer loop
      vertex 1.56806 -2.10454 4.8
      vertex 1.79326 -2.31601 6.5
      vertex 1.79326 -2.31601 4.8
    endloop
  endfacet
  facet normal 0.684535 0.72898 -0
    outer loop
      vertex 1.56806 -2.10454 4.8
      vertex 1.56806 -2.10454 6.5
      vertex 1.79326 -2.31601 6.5
    endloop
  endfacet
  facet normal 0.587796 0.809009 0
    outer loop
      vertex 1.31813 -1.92295 4.8
      vertex 1.56806 -2.10454 6.5
      vertex 1.56806 -2.10454 4.8
    endloop
  endfacet
  facet normal 0.587796 0.809009 -0
    outer loop
      vertex 1.31813 -1.92295 4.8
      vertex 1.31813 -1.92295 6.5
      vertex 1.56806 -2.10454 6.5
    endloop
  endfacet
  facet normal 0.481744 0.876312 0
    outer loop
      vertex 1.04742 -1.77413 4.8
      vertex 1.31813 -1.92295 6.5
      vertex 1.31813 -1.92295 4.8
    endloop
  endfacet
  facet normal 0.481744 0.876312 -0
    outer loop
      vertex 1.04742 -1.77413 4.8
      vertex 1.04742 -1.77413 6.5
      vertex 1.31813 -1.92295 6.5
    endloop
  endfacet
  facet normal 0.368137 0.929772 0
    outer loop
      vertex 0.760182 -1.6604 4.8
      vertex 1.04742 -1.77413 6.5
      vertex 1.04742 -1.77413 4.8
    endloop
  endfacet
  facet normal 0.368137 0.929772 -0
    outer loop
      vertex 0.760182 -1.6604 4.8
      vertex 0.760182 -1.6604 6.5
      vertex 1.04742 -1.77413 6.5
    endloop
  endfacet
  facet normal 0.248697 0.968581 0
    outer loop
      vertex 0.460958 -1.58357 4.8
      vertex 0.760182 -1.6604 6.5
      vertex 0.760182 -1.6604 4.8
    endloop
  endfacet
  facet normal 0.248697 0.968581 -0
    outer loop
      vertex 0.460958 -1.58357 4.8
      vertex 0.460958 -1.58357 6.5
      vertex 0.760182 -1.6604 6.5
    endloop
  endfacet
  facet normal 0.125336 0.992114 0
    outer loop
      vertex 0.154465 -1.54485 4.8
      vertex 0.460958 -1.58357 6.5
      vertex 0.460958 -1.58357 4.8
    endloop
  endfacet
  facet normal 0.125336 0.992114 -0
    outer loop
      vertex 0.154465 -1.54485 4.8
      vertex 0.154465 -1.54485 6.5
      vertex 0.460958 -1.58357 6.5
    endloop
  endfacet
  facet normal 0 1 0
    outer loop
      vertex -0.154465 -1.54485 4.8
      vertex 0.154465 -1.54485 6.5
      vertex 0.154465 -1.54485 4.8
    endloop
  endfacet
  facet normal 0 1 0
    outer loop
      vertex -0.154465 -1.54485 4.8
      vertex -0.154465 -1.54485 6.5
      vertex 0.154465 -1.54485 6.5
    endloop
  endfacet
  facet normal -0.125336 0.992114 0
    outer loop
      vertex -0.460958 -1.58357 4.8
      vertex -0.154465 -1.54485 6.5
      vertex -0.154465 -1.54485 4.8
    endloop
  endfacet
  facet normal -0.125336 0.992114 0
    outer loop
      vertex -0.460958 -1.58357 4.8
      vertex -0.460958 -1.58357 6.5
      vertex -0.154465 -1.54485 6.5
    endloop
  endfacet
  facet normal -0.248697 0.968581 0
    outer loop
      vertex -0.760182 -1.6604 4.8
      vertex -0.460958 -1.58357 6.5
      vertex -0.460958 -1.58357 4.8
    endloop
  endfacet
  facet normal -0.248697 0.968581 0
    outer loop
      vertex -0.760182 -1.6604 4.8
      vertex -0.760182 -1.6604 6.5
      vertex -0.460958 -1.58357 6.5
    endloop
  endfacet
  facet normal -0.368137 0.929772 0
    outer loop
      vertex -1.04742 -1.77413 4.8
      vertex -0.760182 -1.6604 6.5
      vertex -0.760182 -1.6604 4.8
    endloop
  endfacet
  facet normal -0.368137 0.929772 0
    outer loop
      vertex -1.04742 -1.77413 4.8
      vertex -1.04742 -1.77413 6.5
      vertex -0.760182 -1.6604 6.5
    endloop
  endfacet
  facet normal -0.481744 0.876312 0
    outer loop
      vertex -1.31813 -1.92295 4.8
      vertex -1.04742 -1.77413 6.5
      vertex -1.04742 -1.77413 4.8
    endloop
  endfacet
  facet normal -0.481744 0.876312 0
    outer loop
      vertex -1.31813 -1.92295 4.8
      vertex -1.31813 -1.92295 6.5
      vertex -1.04742 -1.77413 6.5
    endloop
  endfacet
  facet normal -0.587796 0.809009 0
    outer loop
      vertex -1.56806 -2.10454 4.8
      vertex -1.31813 -1.92295 6.5
      vertex -1.31813 -1.92295 4.8
    endloop
  endfacet
  facet normal -0.587796 0.809009 0
    outer loop
      vertex -1.56806 -2.10454 4.8
      vertex -1.56806 -2.10454 6.5
      vertex -1.31813 -1.92295 6.5
    endloop
  endfacet
  facet normal -0.684535 0.72898 0
    outer loop
      vertex -1.79326 -2.31601 4.8
      vertex -1.56806 -2.10454 6.5
      vertex -1.56806 -2.10454 4.8
    endloop
  endfacet
  facet normal -0.684535 0.72898 0
    outer loop
      vertex -1.79326 -2.31601 4.8
      vertex -1.79326 -2.31601 6.5
      vertex -1.56806 -2.10454 6.5
    endloop
  endfacet
  facet normal -0.770519 0.637417 0
    outer loop
      vertex -1.99018 -2.55405 4.8
      vertex -1.79326 -2.31601 6.5
      vertex -1.79326 -2.31601 4.8
    endloop
  endfacet
  facet normal -0.770519 0.637417 0
    outer loop
      vertex -1.99018 -2.55405 4.8
      vertex -1.99018 -2.55405 6.5
      vertex -1.79326 -2.31601 6.5
    endloop
  endfacet
  facet normal -0.844334 0.535817 0
    outer loop
      vertex -2.15571 -2.81489 4.8
      vertex -1.99018 -2.55405 6.5
      vertex -1.99018 -2.55405 4.8
    endloop
  endfacet
  facet normal -0.844334 0.535817 0
    outer loop
      vertex -2.15571 -2.81489 4.8
      vertex -2.15571 -2.81489 6.5
      vertex -1.99018 -2.55405 6.5
    endloop
  endfacet
  facet normal -0.904817 0.4258 0
    outer loop
      vertex -2.28725 -3.09441 4.8
      vertex -2.15571 -2.81489 6.5
      vertex -2.15571 -2.81489 4.8
    endloop
  endfacet
  facet normal -0.904817 0.4258 0
    outer loop
      vertex -2.28725 -3.09441 4.8
      vertex -2.28725 -3.09441 6.5
      vertex -2.15571 -2.81489 6.5
    endloop
  endfacet
  facet normal -0.951061 0.309003 0
    outer loop
      vertex -2.38271 -3.38822 4.8
      vertex -2.28725 -3.09441 6.5
      vertex -2.28725 -3.09441 4.8
    endloop
  endfacet
  facet normal -0.951061 0.309003 0
    outer loop
      vertex -2.38271 -3.38822 4.8
      vertex -2.38271 -3.38822 6.5
      vertex -2.28725 -3.09441 6.5
    endloop
  endfacet
  facet normal -0.982286 0.187387 0
    outer loop
      vertex -2.4406 -3.69168 4.8
      vertex -2.38271 -3.38822 6.5
      vertex -2.38271 -3.38822 4.8
    endloop
  endfacet
  facet normal -0.982286 0.187387 0
    outer loop
      vertex -2.4406 -3.69168 4.8
      vertex -2.4406 -3.69168 6.5
      vertex -2.38271 -3.38822 6.5
    endloop
  endfacet
  facet normal -0.998026 0.0627975 0
    outer loop
      vertex -2.46 -4 4.8
      vertex -2.4406 -3.69168 6.5
      vertex -2.4406 -3.69168 4.8
    endloop
  endfacet
  facet normal -0.998026 0.0627975 0
    outer loop
      vertex -2.46 -4 4.8
      vertex -2.46 -4 6.5
      vertex -2.4406 -3.69168 6.5
    endloop
  endfacet
  facet normal -0.998026 -0.0627975 0
    outer loop
      vertex -2.4406 -4.30832 4.8
      vertex -2.46 -4 6.5
      vertex -2.46 -4 4.8
    endloop
  endfacet
  facet normal -0.998026 -0.0627975 0
    outer loop
      vertex -2.4406 -4.30832 4.8
      vertex -2.4406 -4.30832 6.5
      vertex -2.46 -4 6.5
    endloop
  endfacet
  facet normal -0.982286 -0.187387 0
    outer loop
      vertex -2.38271 -4.61178 4.8
      vertex -2.4406 -4.30832 6.5
      vertex -2.4406 -4.30832 4.8
    endloop
  endfacet
  facet normal -0.982286 -0.187387 0
    outer loop
      vertex -2.38271 -4.61178 4.8
      vertex -2.38271 -4.61178 6.5
      vertex -2.4406 -4.30832 6.5
    endloop
  endfacet
  facet normal -0.951061 -0.309003 0
    outer loop
      vertex -2.28725 -4.90559 4.8
      vertex -2.38271 -4.61178 6.5
      vertex -2.38271 -4.61178 4.8
    endloop
  endfacet
  facet normal -0.951061 -0.309003 0
    outer loop
      vertex -2.28725 -4.90559 4.8
      vertex -2.28725 -4.90559 6.5
      vertex -2.38271 -4.61178 6.5
    endloop
  endfacet
  facet normal -0.904817 -0.4258 0
    outer loop
      vertex -2.15571 -5.18511 4.8
      vertex -2.28725 -4.90559 6.5
      vertex -2.28725 -4.90559 4.8
    endloop
  endfacet
  facet normal -0.904817 -0.4258 0
    outer loop
      vertex -2.15571 -5.18511 4.8
      vertex -2.15571 -5.18511 6.5
      vertex -2.28725 -4.90559 6.5
    endloop
  endfacet
  facet normal -0.844334 -0.535817 0
    outer loop
      vertex -1.99018 -5.44595 4.8
      vertex -2.15571 -5.18511 6.5
      vertex -2.15571 -5.18511 4.8
    endloop
  endfacet
  facet normal -0.844334 -0.535817 0
    outer loop
      vertex -1.99018 -5.44595 4.8
      vertex -1.99018 -5.44595 6.5
      vertex -2.15571 -5.18511 6.5
    endloop
  endfacet
  facet normal -0.770519 -0.637417 0
    outer loop
      vertex -1.79326 -5.68399 4.8
      vertex -1.99018 -5.44595 6.5
      vertex -1.99018 -5.44595 4.8
    endloop
  endfacet
  facet normal -0.770519 -0.637417 0
    outer loop
      vertex -1.79326 -5.68399 4.8
      vertex -1.79326 -5.68399 6.5
      vertex -1.99018 -5.44595 6.5
    endloop
  endfacet
  facet normal -0.684535 -0.72898 0
    outer loop
      vertex -1.56806 -5.89546 4.8
      vertex -1.79326 -5.68399 6.5
      vertex -1.79326 -5.68399 4.8
    endloop
  endfacet
  facet normal -0.684535 -0.72898 0
    outer loop
      vertex -1.56806 -5.89546 4.8
      vertex -1.56806 -5.89546 6.5
      vertex -1.79326 -5.68399 6.5
    endloop
  endfacet
  facet normal -0.587796 -0.809009 0
    outer loop
      vertex -1.31813 -6.07705 4.8
      vertex -1.56806 -5.89546 6.5
      vertex -1.56806 -5.89546 4.8
    endloop
  endfacet
  facet normal -0.587796 -0.809009 0
    outer loop
      vertex -1.31813 -6.07705 4.8
      vertex -1.31813 -6.07705 6.5
      vertex -1.56806 -5.89546 6.5
    endloop
  endfacet
  facet normal -0.481744 -0.876312 0
    outer loop
      vertex -1.04742 -6.22587 4.8
      vertex -1.31813 -6.07705 6.5
      vertex -1.31813 -6.07705 4.8
    endloop
  endfacet
  facet normal -0.481744 -0.876312 0
    outer loop
      vertex -1.04742 -6.22587 4.8
      vertex -1.04742 -6.22587 6.5
      vertex -1.31813 -6.07705 6.5
    endloop
  endfacet
  facet normal -0.368137 -0.929772 0
    outer loop
      vertex -0.760182 -6.3396 4.8
      vertex -1.04742 -6.22587 6.5
      vertex -1.04742 -6.22587 4.8
    endloop
  endfacet
  facet normal -0.368137 -0.929772 0
    outer loop
      vertex -0.760182 -6.3396 4.8
      vertex -0.760182 -6.3396 6.5
      vertex -1.04742 -6.22587 6.5
    endloop
  endfacet
  facet normal -0.248697 -0.968581 0
    outer loop
      vertex -0.460958 -6.41643 4.8
      vertex -0.760182 -6.3396 6.5
      vertex -0.760182 -6.3396 4.8
    endloop
  endfacet
  facet normal -0.248697 -0.968581 0
    outer loop
      vertex -0.460958 -6.41643 4.8
      vertex -0.460958 -6.41643 6.5
      vertex -0.760182 -6.3396 6.5
    endloop
  endfacet
  facet normal -0.125336 -0.992114 0
    outer loop
      vertex -0.154465 -6.45515 4.8
      vertex -0.460958 -6.41643 6.5
      vertex -0.460958 -6.41643 4.8
    endloop
  endfacet
  facet normal -0.125336 -0.992114 0
    outer loop
      vertex -0.154465 -6.45515 4.8
      vertex -0.154465 -6.45515 6.5
      vertex -0.460958 -6.41643 6.5
    endloop
  endfacet
  facet normal 0 -1 0
    outer loop
      vertex 0.154465 -6.45515 4.8
      vertex -0.154465 -6.45515 6.5
      vertex -0.154465 -6.45515 4.8
    endloop
  endfacet
  facet normal 0 -1 0
    outer loop
      vertex 0.154465 -6.45515 4.8
      vertex 0.154465 -6.45515 6.5
      vertex -0.154465 -6.45515 6.5
    endloop
  endfacet
  facet normal 0.125336 -0.992114 0
    outer loop
      vertex 0.460958 -6.41643 4.8
      vertex 0.154465 -6.45515 6.5
      vertex 0.154465 -6.45515 4.8
    endloop
  endfacet
  facet normal 0.125336 -0.992114 0
    outer loop
      vertex 0.460958 -6.41643 4.8
      vertex 0.460958 -6.41643 6.5
      vertex 0.154465 -6.45515 6.5
    endloop
  endfacet
  facet normal 0 -0 1
    outer loop
      vertex 1.79326 -5.68399 6.5
      vertex 1.99018 -5.44595 6.5
      vertex 1.31813 -6.07705 6.5
    endloop
  endfacet
  facet normal 0 0 1
    outer loop
      vertex 1.04742 1.77413 6.5
      vertex 0.460958 1.58357 6.5
      vertex 0.760182 1.6604 6.5
    endloop
  endfacet
  facet normal 0 0 1
    outer loop
      vertex 2.28725 3.09441 6.5
      vertex 1.99018 2.55405 6.5
      vertex 2.15571 2.81489 6.5
    endloop
  endfacet
  facet normal 0 -0 1
    outer loop
      vertex 1.04742 1.77413 6.5
      vertex 1.31813 1.92295 6.5
      vertex 0.460958 1.58357 6.5
    endloop
  endfacet
  facet normal 0 0 1
    outer loop
      vertex 1.31813 -6.07705 6.5
      vertex 2.15571 -5.18511 6.5
      vertex 2.28725 -4.90559 6.5
    endloop
  endfacet
  facet normal 0 0 1
    outer loop
      vertex 1.79326 -5.68399 6.5
      vertex 1.31813 -6.07705 6.5
      vertex 1.56806 -5.89546 6.5
    endloop
  endfacet
  facet normal 0 0 1
    outer loop
      vertex 1.31813 -6.07705 6.5
      vertex 1.99018 -5.44595 6.5
      vertex 2.15571 -5.18511 6.5
    endloop
  endfacet
  facet normal 0 -0 1
    outer loop
      vertex 1.56806 2.10454 6.5
      vertex 1.79326 2.31601 6.5
      vertex 1.31813 1.92295 6.5
    endloop
  endfacet
  facet normal 0 0 1
    outer loop
      vertex 2.38271 -3.38822 6.5
      vertex 2.4406 -4.30832 6.5
      vertex 2.46 -4 6.5
    endloop
  endfacet
  facet normal 0 -0 1
    outer loop
      vertex 1.79326 2.31601 6.5
      vertex 1.99018 2.55405 6.5
      vertex 1.31813 1.92295 6.5
    endloop
  endfacet
  facet normal 0 0 1
    outer loop
      vertex 2.28725 -4.90559 6.5
      vertex 2.38271 -4.61178 6.5
      vertex 2.4406 -4.30832 6.5
    endloop
  endfacet
  facet normal 0 0 1
    outer loop
      vertex 1.31813 1.92295 6.5
      vertex 1.99018 2.55405 6.5
      vertex 2.28725 3.09441 6.5
    endloop
  endfacet
  facet normal 0 0 1
    outer loop
      vertex 2.28725 -4.90559 6.5
      vertex 2.4406 -4.30832 6.5
      vertex 2.38271 -3.38822 6.5
    endloop
  endfacet
  facet normal 0 -0 1
    outer loop
      vertex 1.31813 1.92295 6.5
      vertex 2.28725 3.09441 6.5
      vertex 0.460958 1.58357 6.5
    endloop
  endfacet
  facet normal 0 0 1
    outer loop
      vertex 1.31813 -6.07705 6.5
      vertex 2.28725 -4.90559 6.5
      vertex 2.38271 -3.38822 6.5
    endloop
  endfacet
  facet normal 0 0 1
    outer loop
      vertex 2.28725 3.09441 6.5
      vertex 2.38271 3.38822 6.5
      vertex 2.4406 3.69168 6.5
    endloop
  endfacet
  facet normal 0 0 1
    outer loop
      vertex 2.15571 -2.81489 6.5
      vertex 1.79326 -2.31601 6.5
      vertex 1.56806 -2.10454 6.5
    endloop
  endfacet
  facet normal 0 0 1
    outer loop
      vertex 2.28725 3.09441 6.5
      vertex 2.4406 3.69168 6.5
      vertex 2.38271 4.61178 6.5
    endloop
  endfacet
  facet normal 0 0 1
    outer loop
      vertex 2.28725 -3.09441 6.5
      vertex 2.15571 -2.81489 6.5
      vertex 2.38271 -3.38822 6.5
    endloop
  endfacet
  facet normal 0 0 1
    outer loop
      vertex 2.4406 3.69168 6.5
      vertex 2.46 4 6.5
      vertex 2.4406 4.30832 6.5
    endloop
  endfacet
  facet normal 0 0 1
    outer loop
      vertex 0.154465 -1.54485 6.5
      vertex 1.31813 -6.07705 6.5
      vertex 1.56806 -2.10454 6.5
    endloop
  endfacet
  facet normal 0 -0 1
    outer loop
      vertex 2.4406 3.69168 6.5
      vertex 2.4406 4.30832 6.5
      vertex 2.38271 4.61178 6.5
    endloop
  endfacet
  facet normal 0 -0 1
    outer loop
      vertex 2.28725 3.09441 6.5
      vertex 2.38271 4.61178 6.5
      vertex 0.460958 1.58357 6.5
    endloop
  endfacet
  facet normal 0 0 1
    outer loop
      vertex 0.760182 6.3396 6.5
      vertex 2.28725 4.90559 6.5
      vertex 1.04742 6.22587 6.5
    endloop
  endfacet
  facet normal 0 0 1
    outer loop
      vertex 1.56806 5.89546 6.5
      vertex 2.15571 5.18511 6.5
      vertex 1.79326 5.68399 6.5
    endloop
  endfacet
  facet normal 0 0 1
    outer loop
      vertex 2.28725 4.90559 6.5
      vertex 2.15571 5.18511 6.5
      vertex 1.56806 5.89546 6.5
    endloop
  endfacet
  facet normal 0 0 1
    outer loop
      vertex 1.99018 5.44595 6.5
      vertex 1.79326 5.68399 6.5
      vertex 2.15571 5.18511 6.5
    endloop
  endfacet
  facet normal 0 0 1
    outer loop
      vertex 2.28725 4.90559 6.5
      vertex 1.56806 5.89546 6.5
      vertex 1.04742 6.22587 6.5
    endloop
  endfacet
  facet normal 0 0 1
    outer loop
      vertex 0.460958 6.41643 6.5
      vertex 2.28725 4.90559 6.5
      vertex 0.760182 6.3396 6.5
    endloop
  endfacet
  facet normal 0 0 1
    outer loop
      vertex 1.31813 6.07705 6.5
      vertex 1.04742 6.22587 6.5
      vertex 1.56806 5.89546 6.5
    endloop
  endfacet
  facet normal 0 0 1
    outer loop
      vertex 2.38271 4.61178 6.5
      vertex 2.28725 4.90559 6.5
      vertex 0.460958 6.41643 6.5
    endloop
  endfacet
  facet normal 0 0 1
    outer loop
      vertex 2.38271 4.61178 6.5
      vertex 0.460958 6.41643 6.5
      vertex 0.460958 1.58357 6.5
    endloop
  endfacet
  facet normal 0 0 1
    outer loop
      vertex 0.460958 6.41643 6.5
      vertex -0.460958 6.41643 6.5
      vertex -0.460958 1.58357 6.5
    endloop
  endfacet
  facet normal 0 0 1
    outer loop
      vertex 0.154465 6.45515 6.5
      vertex -0.154465 6.45515 6.5
      vertex -0.460958 6.41643 6.5
    endloop
  endfacet
  facet normal 0 0 1
    outer loop
      vertex 0.154465 6.45515 6.5
      vertex -0.460958 6.41643 6.5
      vertex 0.460958 6.41643 6.5
    endloop
  endfacet
  facet normal 0 0 1
    outer loop
      vertex -0.460958 6.41643 6.5
      vertex -0.760182 6.3396 6.5
      vertex -2.28725 4.90559 6.5
    endloop
  endfacet
  facet normal 0 0 1
    outer loop
      vertex -2.28725 4.90559 6.5
      vertex -1.04742 6.22587 6.5
      vertex -2.15571 5.18511 6.5
    endloop
  endfacet
  facet normal 0 0 1
    outer loop
      vertex -1.04742 6.22587 6.5
      vertex -1.99018 5.44595 6.5
      vertex -2.15571 5.18511 6.5
    endloop
  endfacet
  facet normal 0 0 1
    outer loop
      vertex -1.31813 6.07705 6.5
      vertex -1.56806 5.89546 6.5
      vertex -1.79326 5.68399 6.5
    endloop
  endfacet
  facet normal -0 0 1
    outer loop
      vertex -1.31813 6.07705 6.5
      vertex -1.79326 5.68399 6.5
      vertex -1.04742 6.22587 6.5
    endloop
  endfacet
  facet normal -0 0 1
    outer loop
      vertex -1.79326 5.68399 6.5
      vertex -1.99018 5.44595 6.5
      vertex -1.04742 6.22587 6.5
    endloop
  endfacet
  facet normal 0 0 1
    outer loop
      vertex -0.760182 6.3396 6.5
      vertex -1.04742 6.22587 6.5
      vertex -2.28725 4.90559 6.5
    endloop
  endfacet
  facet normal 0 0 1
    outer loop
      vertex -0.460958 6.41643 6.5
      vertex -2.28725 4.90559 6.5
      vertex -2.38271 4.61178 6.5
    endloop
  endfacet
  facet normal 0 0 1
    outer loop
      vertex -0.460958 6.41643 6.5
      vertex -2.38271 4.61178 6.5
      vertex -2.28725 3.09441 6.5
    endloop
  endfacet
  facet normal 0 0 1
    outer loop
      vertex -2.38271 4.61178 6.5
      vertex -2.4406 4.30832 6.5
      vertex -2.4406 3.69168 6.5
    endloop
  endfacet
  facet normal 0 0 1
    outer loop
      vertex -2.4406 4.30832 6.5
      vertex -2.46 4 6.5
      vertex -2.4406 3.69168 6.5
    endloop
  endfacet
  facet normal 0 0 1
    outer loop
      vertex -2.28725 3.09441 6.5
      vertex -2.4406 3.69168 6.5
      vertex -2.38271 3.38822 6.5
    endloop
  endfacet
  facet normal 0 0 1
    outer loop
      vertex -2.38271 4.61178 6.5
      vertex -2.4406 3.69168 6.5
      vertex -2.28725 3.09441 6.5
    endloop
  endfacet
  facet normal 0 0 1
    outer loop
      vertex -0.460958 1.58357 6.5
      vertex -2.28725 3.09441 6.5
      vertex -1.31813 1.92295 6.5
    endloop
  endfacet
  facet normal 0 0 1
    outer loop
      vertex -0.460958 6.41643 6.5
      vertex -2.28725 3.09441 6.5
      vertex -0.460958 1.58357 6.5
    endloop
  endfacet
  facet normal 0 0 1
    outer loop
      vertex -1.31813 -1.92295 6.5
      vertex -1.79326 -2.31601 6.5
      vertex -1.99018 -2.55405 6.5
    endloop
  endfacet
  facet normal -0 -0 1
    outer loop
      vertex -2.15571 2.81489 6.5
      vertex -1.99018 2.55405 6.5
      vertex -2.28725 3.09441 6.5
    endloop
  endfacet
  facet normal -0 0 1
    outer loop
      vertex -2.15571 -2.81489 6.5
      vertex -2.28725 -3.09441 6.5
      vertex -1.99018 -2.55405 6.5
    endloop
  endfacet
  facet normal -0 -0 1
    outer loop
      vertex -1.99018 2.55405 6.5
      vertex -1.31813 1.92295 6.5
      vertex -2.28725 3.09441 6.5
    endloop
  endfacet
  facet normal -0 -0 1
    outer loop
      vertex -1.79326 2.31601 6.5
      vertex -1.31813 1.92295 6.5
      vertex -1.99018 2.55405 6.5
    endloop
  endfacet
  facet normal 0 -0 1
    outer loop
      vertex -1.04742 -6.22587 6.5
      vertex -0.154465 -1.54485 6.5
      vertex -1.31813 -1.92295 6.5
    endloop
  endfacet
  facet normal -0 -0 1
    outer loop
      vertex -1.56806 2.10454 6.5
      vertex -1.31813 1.92295 6.5
      vertex -1.79326 2.31601 6.5
    endloop
  endfacet
  facet normal 0 0 1
    outer loop
      vertex -1.31813 -1.92295 6.5
      vertex -0.760182 -1.6604 6.5
      vertex -1.04742 -1.77413 6.5
    endloop
  endfacet
  facet normal 0 0 1
    outer loop
      vertex -1.31813 1.92295 6.5
      vertex -1.04742 1.77413 6.5
      vertex -0.460958 1.58357 6.5
    endloop
  endfacet
  facet normal 0 0 1
    outer loop
      vertex -1.31813 -1.92295 6.5
      vertex -0.154465 -1.54485 6.5
      vertex -0.760182 -1.6604 6.5
    endloop
  endfacet
  facet normal 0 0 1
    outer loop
      vertex 0.460958 6.41643 6.5
      vertex -0.460958 1.58357 6.5
      vertex 0.460958 1.58357 6.5
    endloop
  endfacet
  facet normal 0 0 1
    outer loop
      vertex -1.04742 -6.22587 6.5
      vertex 0.154465 -1.54485 6.5
      vertex -0.154465 -1.54485 6.5
    endloop
  endfacet
  facet normal -0 -0 1
    outer loop
      vertex -0.760182 1.6604 6.5
      vertex -0.460958 1.58357 6.5
      vertex -1.04742 1.77413 6.5
    endloop
  endfacet
  facet normal 0 0 1
    outer loop
      vertex 0.154465 -1.54485 6.5
      vertex 1.56806 -2.10454 6.5
      vertex 0.760182 -1.6604 6.5
    endloop
  endfacet
  facet normal -0 0 1
    outer loop
      vertex -0.460958 1.58357 6.5
      vertex 0.154465 1.54485 6.5
      vertex 0.460958 1.58357 6.5
    endloop
  endfacet
  facet normal 0 0 1
    outer loop
      vertex 0.760182 -1.6604 6.5
      vertex 1.56806 -2.10454 6.5
      vertex 1.04742 -1.77413 6.5
    endloop
  endfacet
  facet normal 0 -0 1
    outer loop
      vertex -0.154465 1.54485 6.5
      vertex 0.154465 1.54485 6.5
      vertex -0.460958 1.58357 6.5
    endloop
  endfacet
  facet normal 0 0 1
    outer loop
      vertex 2.15571 -2.81489 6.5
      vertex 1.56806 -2.10454 6.5
      vertex 2.38271 -3.38822 6.5
    endloop
  endfacet
  facet normal 0 0 1
    outer loop
      vertex 1.04742 -6.22587 6.5
      vertex 0.460958 -6.41643 6.5
      vertex 0.760182 -6.3396 6.5
    endloop
  endfacet
  facet normal 0 0 1
    outer loop
      vertex 2.46 -4 6.5
      vertex 2.4406 -3.69168 6.5
      vertex 2.38271 -3.38822 6.5
    endloop
  endfacet
  facet normal 0 0 1
    outer loop
      vertex 1.31813 -6.07705 6.5
      vertex 2.38271 -3.38822 6.5
      vertex 1.56806 -2.10454 6.5
    endloop
  endfacet
  facet normal 0 0 1
    outer loop
      vertex 1.99018 -2.55405 6.5
      vertex 1.79326 -2.31601 6.5
      vertex 2.15571 -2.81489 6.5
    endloop
  endfacet
  facet normal 0 0 1
    outer loop
      vertex 1.56806 -2.10454 6.5
      vertex 1.31813 -1.92295 6.5
      vertex 1.04742 -1.77413 6.5
    endloop
  endfacet
  facet normal 0 0 1
    outer loop
      vertex 0.460958 -1.58357 6.5
      vertex 0.154465 -1.54485 6.5
      vertex 0.760182 -1.6604 6.5
    endloop
  endfacet
  facet normal 0 -0 1
    outer loop
      vertex 1.04742 -6.22587 6.5
      vertex 1.31813 -6.07705 6.5
      vertex 0.154465 -1.54485 6.5
    endloop
  endfacet
  facet normal 0 0 1
    outer loop
      vertex -0.154465 -1.54485 6.5
      vertex -0.460958 -1.58357 6.5
      vertex -0.760182 -1.6604 6.5
    endloop
  endfacet
  facet normal -0 0 1
    outer loop
      vertex -1.56806 -2.10454 6.5
      vertex -1.79326 -2.31601 6.5
      vertex -1.31813 -1.92295 6.5
    endloop
  endfacet
  facet normal 0 0 1
    outer loop
      vertex -2.28725 -3.09441 6.5
      vertex -1.31813 -1.92295 6.5
      vertex -1.99018 -2.55405 6.5
    endloop
  endfacet
  facet normal 0 0 1
    outer loop
      vertex -1.04742 -6.22587 6.5
      vertex -1.31813 -1.92295 6.5
      vertex -2.28725 -3.09441 6.5
    endloop
  endfacet
  facet normal 0 0 1
    outer loop
      vertex -2.4406 -3.69168 6.5
      vertex -2.28725 -3.09441 6.5
      vertex -2.38271 -3.38822 6.5
    endloop
  endfacet
  facet normal -0 0 1
    outer loop
      vertex -2.4406 -4.30832 6.5
      vertex -2.38271 -4.61178 6.5
      vertex -2.4406 -3.69168 6.5
    endloop
  endfacet
  facet normal 0 -0 1
    outer loop
      vertex -2.4406 -4.30832 6.5
      vertex -2.4406 -3.69168 6.5
      vertex -2.46 -4 6.5
    endloop
  endfacet
  facet normal 0 -0 1
    outer loop
      vertex -2.38271 -4.61178 6.5
      vertex -2.28725 -3.09441 6.5
      vertex -2.4406 -3.69168 6.5
    endloop
  endfacet
  facet normal 0 0 1
    outer loop
      vertex -1.04742 -6.22587 6.5
      vertex -2.28725 -3.09441 6.5
      vertex -2.38271 -4.61178 6.5
    endloop
  endfacet
  facet normal 0 0 1
    outer loop
      vertex -1.04742 -6.22587 6.5
      vertex -2.38271 -4.61178 6.5
      vertex -2.28725 -4.90559 6.5
    endloop
  endfacet
  facet normal 0 0 1
    outer loop
      vertex -1.04742 -6.22587 6.5
      vertex -2.28725 -4.90559 6.5
      vertex -2.15571 -5.18511 6.5
    endloop
  endfacet
  facet normal 0 0 1
    outer loop
      vertex 1.04742 -6.22587 6.5
      vertex 0.154465 -1.54485 6.5
      vertex -1.04742 -6.22587 6.5
    endloop
  endfacet
  facet normal -0 -0 1
    outer loop
      vertex -1.56806 -5.89546 6.5
      vertex -1.04742 -6.22587 6.5
      vertex -1.79326 -5.68399 6.5
    endloop
  endfacet
  facet normal 0 0 1
    outer loop
      vertex -1.04742 -6.22587 6.5
      vertex -1.99018 -5.44595 6.5
      vertex -1.79326 -5.68399 6.5
    endloop
  endfacet
  facet normal 0 0 1
    outer loop
      vertex -1.04742 -6.22587 6.5
      vertex -1.56806 -5.89546 6.5
      vertex -1.31813 -6.07705 6.5
    endloop
  endfacet
  facet normal 0 0 1
    outer loop
      vertex -2.15571 -5.18511 6.5
      vertex -1.99018 -5.44595 6.5
      vertex -1.04742 -6.22587 6.5
    endloop
  endfacet
  facet normal 0 0 1
    outer loop
      vertex 1.04742 -6.22587 6.5
      vertex -1.04742 -6.22587 6.5
      vertex 0.460958 -6.41643 6.5
    endloop
  endfacet
  facet normal 0 0 1
    outer loop
      vertex -1.04742 -6.22587 6.5
      vertex -0.760182 -6.3396 6.5
      vertex -0.460958 -6.41643 6.5
    endloop
  endfacet
  facet normal 0 0 1
    outer loop
      vertex -1.04742 -6.22587 6.5
      vertex -0.460958 -6.41643 6.5
      vertex 0.460958 -6.41643 6.5
    endloop
  endfacet
  facet normal -0 0 1
    outer loop
      vertex -0.460958 -6.41643 6.5
      vertex 0.154465 -6.45515 6.5
      vertex 0.460958 -6.41643 6.5
    endloop
  endfacet
  facet normal 0 -0 1
    outer loop
      vertex -0.154465 -6.45515 6.5
      vertex 0.154465 -6.45515 6.5
      vertex -0.460958 -6.41643 6.5
    endloop
  endfacet
  facet normal 1 -0 0
    outer loop
      vertex 3.9 -7.9 4.8
      vertex 3.9 7.9 -4.8
      vertex 3.9 7.9 4.8
    endloop
  endfacet
  facet normal 1 0 0
    outer loop
      vertex 3.9 7.9 -4.8
      vertex 3.9 -7.9 4.8
      vertex 3.9 -7.9 -4.8
    endloop
  endfacet
  facet normal -0 0 1
    outer loop
      vertex -3.9 7.9 4.8
      vertex 3.9 -7.9 4.8
      vertex 3.9 7.9 4.8
    endloop
  endfacet
  facet normal 0 0 1
    outer loop
      vertex 3.9 -7.9 4.8
      vertex -3.9 7.9 4.8
      vertex -3.9 -7.9 4.8
    endloop
  endfacet
  facet normal 0 0 -1
    outer loop
      vertex 3.9 -7.9 -4.8
      vertex 2.54 -6.54 -4.8
      vertex 3.9 7.9 -4.8
    endloop
  endfacet
  facet normal 0 0 -1
    outer loop
      vertex 3.9 -7.9 -4.8
      vertex -2.54 -6.54 -4.8
      vertex 2.54 -6.54 -4.8
    endloop
  endfacet
  facet normal -0 0 -1
    outer loop
      vertex -2.54 -6.54 -4.8
      vertex -3.9 -7.9 -4.8
      vertex -2.54 6.54 -4.8
    endloop
  endfacet
  facet normal 0 0 -1
    outer loop
      vertex -3.9 -7.9 -4.8
      vertex -2.54 -6.54 -4.8
      vertex 3.9 -7.9 -4.8
    endloop
  endfacet
  facet normal 0 0 -1
    outer loop
      vertex 2.54 6.54 -4.8
      vertex 3.9 7.9 -4.8
      vertex 2.54 -6.54 -4.8
    endloop
  endfacet
  facet normal 0 0 -1
    outer loop
      vertex -2.54 6.54 -4.8
      vertex 3.9 7.9 -4.8
      vertex 2.54 6.54 -4.8
    endloop
  endfacet
  facet normal 0 0 -1
    outer loop
      vertex -2.54 6.54 -4.8
      vertex -3.9 7.9 -4.8
      vertex 3.9 7.9 -4.8
    endloop
  endfacet
  facet normal 0 0 -1
    outer loop
      vertex -3.9 7.9 -4.8
      vertex -2.54 6.54 -4.8
      vertex -3.9 -7.9 -4.8
    endloop
  endfacet
  facet normal -1 0 0
    outer loop
      vertex -3.9 -7.9 -4.8
      vertex -3.9 7.9 4.8
      vertex -3.9 7.9 -4.8
    endloop
  endfacet
  facet normal -1 -0 0
    outer loop
      vertex -3.9 7.9 4.8
      vertex -3.9 -7.9 -4.8
      vertex -3.9 -7.9 4.8
    endloop
  endfacet
  facet normal 0 1 -0
    outer loop
      vertex 3.9 7.9 -4.8
      vertex -3.9 7.9 4.8
      vertex 3.9 7.9 4.8
    endloop
  endfacet
  facet normal 0 1 0
    outer loop
      vertex -3.9 7.9 4.8
      vertex 3.9 7.9 -4.8
      vertex -3.9 7.9 -4.8
    endloop
  endfacet
  facet normal 0 -1 0
    outer loop
      vertex -3.9 -7.9 -4.8
      vertex 3.9 -7.9 4.8
      vertex -3.9 -7.9 4.8
    endloop
  endfacet
  facet normal 0 -1 -0
    outer loop
      vertex 3.9 -7.9 4.8
      vertex -3.9 -7.9 -4.8
      vertex 3.9 -7.9 -4.8
    endloop
  endfacet
  facet normal -1 0 0
    outer loop
      vertex 2.54 -6.54 -4.8
      vertex 2.54 6.54 -2.2
      vertex 2.54 6.54 -4.8
    endloop
  endfacet
  facet normal -1 -0 0
    outer loop
      vertex 2.54 6.54 -2.2
      vertex 2.54 -6.54 -4.8
      vertex 2.54 -6.54 -2.2
    endloop
  endfacet
  facet normal 0 0 -1
    outer loop
      vertex -2.54 -6.54 -2.2
      vertex 2.54 6.54 -2.2
      vertex 2.54 -6.54 -2.2
    endloop
  endfacet
  facet normal -0 0 -1
    outer loop
      vertex 2.54 6.54 -2.2
      vertex -2.54 -6.54 -2.2
      vertex -2.54 6.54 -2.2
    endloop
  endfacet
  facet normal 1 -0 0
    outer loop
      vertex -2.54 -6.54 -2.2
      vertex -2.54 6.54 -4.8
      vertex -2.54 6.54 -2.2
    endloop
  endfacet
  facet normal 1 0 0
    outer loop
      vertex -2.54 6.54 -4.8
      vertex -2.54 -6.54 -2.2
      vertex -2.54 -6.54 -4.8
    endloop
  endfacet
  facet normal 0 -1 0
    outer loop
      vertex -2.54 6.54 -4.8
      vertex 2.54 6.54 -2.2
      vertex -2.54 6.54 -2.2
    endloop
  endfacet
  facet normal 0 -1 -0
    outer loop
      vertex 2.54 6.54 -2.2
      vertex -2.54 6.54 -4.8
      vertex 2.54 6.54 -4.8
    endloop
  endfacet
  facet normal 0 1 -0
    outer loop
      vertex 2.54 -6.54 -4.8
      vertex -2.54 -6.54 -2.2
      vertex 2.54 -6.54 -2.2
    endloop
  endfacet
  facet normal 0 1 0
    outer loop
      vertex -2.54 -6.54 -2.2
      vertex 2.54 -6.54 -4.8
      vertex -2.54 -6.54 -4.8
    endloop
  endfacet
endsolid OpenSCAD_Model
